<svg xmlns="http://www.w3.org/2000/svg" viewBox="0 0 500 500"><defs><style>.cls-1{fill:#0071bc;}.cls-2{fill:#fff;}</style></defs><g id="Capa_2" data-name="Capa 2"><g id="facebook"><path class="cls-1" d="M249.77,500C125.22,501,.33,404.49,0,250.21-.3,109.35,107.19.2,249.48,0,403.62-.22,501.07,124.86,500,252.26,498.84,389,387.33,500.16,249.77,500ZM179.32,192.47v65h31.35v155.2h62.59V256.72h46.31c2-21.86,3.94-42.16,6-64.44H275.75c0-6.95,0-12.07,0-17.19.14-18.87,2.61-21.41,21.45-21.64,8.64-.11,17.29,0,26.64,0V99.2c-20.61,0-40.32-1.51-59.71.34-31.61,3-52.29,26.24-53.87,58.06-.56,11.23-.09,22.51-.09,34.87Z"/><path class="cls-2" d="M179.32,192.47h30.86c0-12.36-.47-23.64.09-34.87,1.58-31.82,22.26-55,53.87-58.06,19.39-1.85,39.1-.34,59.71-.34v54.23c-9.35,0-18-.09-26.64,0-18.84.23-21.31,2.77-21.45,21.64,0,5.12,0,10.24,0,17.19H325.6c-2.09,22.28-4,42.58-6,64.44H273.26v156H210.67V257.47H179.32Z"/></g></g></svg>