<svg xmlns="http://www.w3.org/2000/svg" viewBox="0 0 500 500"><defs><style>.cls-1{fill:#3fa9f5;}.cls-2{fill:#fff;}</style></defs><g id="Capa_2" data-name="Capa 2"><path class="cls-1" d="M249.44,500C111.63,500,.1,388.24,0,250-.1,111.43,112.19.21,251.16,0,377.35-.19,498.17,99.86,500,249.38,501.66,387.84,387.84,500,249.44,500ZM219.91,212.63V364.54h44c0-12.44-.18-24.21,0-36,.36-18.6-.29-37.36,1.88-55.76,2-16.69,12-23.5,27.7-22.87,15.24.62,22.23,9.83,23.48,23.82,1.19,13.37,1.55,26.84,1.78,40.28.29,16.83.07,33.68.07,50.07h44.31c0-37.34,1.42-73.57-.47-109.64-1.37-26.12-18.92-40.46-45.06-42.3-20.43-1.45-39.91.24-55.44,18.6-.5-7.4-.83-12.36-1.22-18.13Zm-31.84,152V213H135.18V364.64ZM162,134.76c-14.78-.12-28,13-27.68,27.47.34,14.28,12.5,26,27.14,26.11,15.28.14,27.91-12.29,27.55-27.12C188.62,147,176.3,134.89,162,134.76Z"/><path class="cls-2" d="M219.91,208.38H261c.39,5.65.72,10.52,1.22,17.76,15.53-18,35-19.64,55.44-18.23,26.14,1.81,43.69,15.86,45.06,41.46,1.89,35.35.47,70.86.47,107.45H318.9c0-16.06.22-32.57-.07-49.08-.23-13.16-.59-26.36-1.78-39.46-1.25-13.71-8.24-22.74-23.48-23.35-15.72-.62-25.73,6-27.7,22.41-2.17,18-1.52,36.42-1.88,54.65-.22,11.53,0,23.07,0,35.26h-44Z"/><path class="cls-2" d="M188.07,357.35H135.18V208.73h52.89Z"/><path class="cls-2" d="M162,132.07c14.34.12,26.66,12,27,25.93.36,14.53-12.27,26.71-27.55,26.58-14.64-.13-26.8-11.6-27.14-25.6C133.94,144.82,147.18,132,162,132.07Z"/></g></svg>