<svg id="color" xmlns="http://www.w3.org/2000/svg" viewBox="0 0 1000 1000"><defs><style>.cls-1,.cls-2{fill:#fff;}.cls-2{opacity:0.28;}</style></defs><g id="logocolor"><path class="cls-1" d="M122.45,203c255.22-100.52,503.17-100.86,754.92-1.56,0,11.35.39,25.42,0,39.52-3.29,105.34-5.3,210.73-10.67,316C863,629.79,820.4,688.57,759.62,738.88c-68.55,56.72-148.85,97.86-240.23,123.8-9.05,2.57-20.77,4.06-29.37,1.57C365.63,828.1,260.65,769.91,184.88,678.08,149,634.53,136.56,584.87,133.8,534.35,127.66,423.36,125.92,312.24,122.45,203Zm716.93,19.76c-227-85.3-449.73-85-674.7,0-2.37,111.63-6.28,223.43,10.53,334.82,7.11,47.16,26,89.53,62.4,126.59,66.7,68.27,151.28,115,249.61,145.15,9.95,3,23.88,2,34.14-1.24,78-24.15,147.45-60.06,207-108.75,54.62-44.7,94-96,100-161.69C831.74,521.4,838.15,485.23,839,449c1.62-75.45.47-150.91.47-226.37Z"/><path class="cls-2" d="M122.45,210.19c255.22-100.52,503.17-100.86,754.92-1.56,0,11.35.39,25.42,0,39.52-3.29,105.34-5.3,210.73-10.67,316C863,637,820.4,695.76,759.62,746.06c-68.55,56.72-148.85,97.87-240.23,123.81-9.05,2.57-20.77,4.06-29.37,1.56-124.39-36.15-229.37-94.34-305.14-186.16C149,641.72,136.56,592.06,133.8,541.54,127.66,430.54,125.92,319.42,122.45,210.19ZM839.38,230c-227-85.3-449.73-85-674.7,0-2.37,111.62-6.28,223.43,10.53,334.82,7.11,47.16,26,89.52,62.4,126.59,66.7,68.27,151.28,115,249.61,145.15,9.95,3,23.88,2,34.14-1.24,78-24.15,147.45-60.06,207-108.75,54.62-44.7,94-96,100-161.7,3.33-36.24,9.74-72.4,10.54-108.64,1.62-75.46.47-150.92.47-226.37Z"/><g id="Capa_3-2" data-name="Capa 3-2"><path class="cls-1" d="M201.49,237.06c3.56,90.69,5.3,181.08,11.22,271.29,2,32.33,6.47,67.24,23,95.68,53.61,92.37,151.55,143.32,263.86,182.59V183.37C394.75,182.26,298.87,202.51,201.49,237.06ZM266.1,525.74l-.39-82L468.85,313.9v96.91L356,485.37,470.9,558.24l.51,97.36Z"/></g><path class="cls-1" d="M722.37,279l.28,1.68-.12,8.79-.33,1.87-.31,1.25-.26.81-.31.86-.26,1-.3.61-.31.64-.25.61-.31.64-.3.39-.25.64-.31.39-.25.44-.3.64-.3.39-.3.21-.25.22-.31.42-.25.39-.3.44-.3.42-.3.16-.25.45-.31.63h-.54v.39l-.25.22-.3.19-.3.44-.3.17-.25.42-.3.22-.25.44-.3.17-.3.21-.3.42-.25.22-.3.22-.25.39-.3.41-.3.22-.25.22-.3.39-.31.42-.24.22-.31.39-.3.41-.54.22-.31.39-.25.22-.3.41-.3.39-.25.22-.3.22-.25.42-.3.22-.3.17-.3.44-.25.21-.3.2-.25.39-.3.44-.3.19-.3.22-.26.61-.3.22-.25.2-.29.22-.26.39-.3.22-.3.41-.3.22-.25.22-.3.39-.25.41-.3.22-.3.22-.3.17-.25.64h-.55v.4l-.3.44-.3.21-.25.2-.31.61h-.54v.44l-.3.41h-.54v.39l-.29.22-.3.19-.26.44-.29.17-.26.44-.59.2-.26.44h-.59v.39l-.25.22-.55.19-.3.22-.3.22-.29.17-.25.22-.55.19-.3.22-.3.22-.25.22-.3.16-.54.22-.3.19-.55.22-.3.22-.3.22-.54.16-.3.22-.25.2-.59.21-.25.22-.85.21-.29.17-.55.22-.3.19-.84.21-.84.22-.25.17-.6.21-.54.22-.85.19-.54.21-.3.17-.55.22-.84.21-.84.21-.54.19-.85.22-.54.16-.89.21-.8.22-.84.21-.84.19-.84.16-1.09.21-.89.21-1.09.19-1.14.21-1.09.21-.84.16-1.38.21-2.27,0-.54-.22-1.08-.19-.29-.64-.29-.62-.24-.64-.28-.62-.25-.42-.28-.62-.29-.64-.29-.62-.24-.64-.28-.62-.24-.65-.29-.61-.29-.65-.24-.39-.28-.65-.29-.62-.24-.64-.29-.62-.28-.64-.24-.62-.29-.42-.29-.84-.23-.64-.3-.4-.28-.64-.24-.84-.29-.43-.29-.39v-.86l.31-.84.31-.64.26-1,.3-.61.31-.86.25-.59.31-.83.31-.64.25-.61.31-.86.31-.81.26-.83.3-.64.31-.83.25-.59.31-.86.31-.61.25-.86.31-.61.26-.81.31-.86.3-.81.31-.66.25-.59.31-.83.26-.64-.79-.23-.59-.23-1.08-.18-1.13-.24-1.14-.21-1.38-.23-1.67-.24-1.38-.19-3.06-.25-5-.28-12.53-.13-5.87.16-3.36.18-1.93,0,1.14.19,1.67.24,1.92.24,1.68.21,1.38.24,0,.84-.4,7.94-.43,12.93-.3.39-.25.44-.31.64-.3.39-.3.21-.25.64-.3.17-.26.64-.3.44-.3.39-.25.42-.31.44-.3.61-.25.41-.31.39-.25.42-.3.44-.3.39-.3.42-.26.44-.3.61-.25.19-.31.67-.3.39-.25.41-.3.39-.31.64-.25.39-.3.22-.25.64-.3.39-.31.44-.3.41-.25.39-.31.64-.25.22-.3.39-.3.22-.84.19-.25.22-2.81,0-1.38-.24-1.67-.21-1.38-.24-1.38-.24-1.13-.18-.84-.23-1.38-.24-1.13-.21-.84-.23-1.13-.23-.54-.18-1.08-.21-.84-.23-.54-.23-.88-.23L594,333l-.84-.23-.83-.2-.59-.23-.54-.23-.54-.23-.84-.18-.54-.23-.29-.2-.54-.22-.59-.23-.83-.18-.54-.23-.54-.23-.3-.2-.54-.22-.29-.18-.84-.23-.24-.23-.29-.22-.59-.2-.25-.23-.29-.17-.54-.23-.54-.23-.29-.22-.3-.2-.24-.23-.29-.17-.25-.23-.59-.22-.29-.23-.24-.2-.3-.22-.24-.18-.29-.22-.3-.23-.54-.2-.29-.23-.24-.22-.54-.18-.29-.44-.3-.2-.29-.23-.24-.4-.29-.22-.25-.22-.29-.2-.29-.23-.24-.4-.3-.22-.29-.42-.24-.45-.29-.17-.29-.43-.24-.44-.29-.4-.3-.22-.24-.42-.29-.4-.29-.45-.24-.64-.29-.4-.24-.42-.29-.22-.29-.62-.24-.23-.29-.81-.29-.23-.24-.64-.29-.22-.29-.4-.24-.64-.29-.4-.29-.23-.24-.64-.29-.4-.29-.42-.24-.66-.29-.18-.29-.42-.24-.45-.29-.62-.25-.2-.28-.61-.29-.45-.29-.42-.24-.4-.29-.45-.24-.42-.29-.61-.3-.23-.23-.59-.29-.45-.29-.42-.25-.4-.29-.44-.24-.43-.29-.39-.28-.65-.29-.44-.25-.18-.29-.64-.24-.45-.29-.39-.29-.42-.24-.45-.29-.59-.28-.62-.24-.45-.29-.81-.24-.45-.28-.82-.29-.86-.28-1-.23-1.26-.27-1.65.13-9.65.32-1.84.27-1.26.31-1.25.31-.83.31-.81.25-.86.31-.84.25-.41.31-.61.3-.64.26-.61.3-.42.3-.44.26-.59.3-.44.25-.39.3-.22.3-.41.3-.22.26-.39.3-.42.25-.44.3-.39.3-.22.26-.63h.59v-.39l.26-.42H564v-.45l.29-.16.3-.22.3-.22.25-.42h.55v-.4l.31-.44h.54v-.42l.6-.16.25-.22.59-.22.26-.41.29-.22.3-.17.55-.22.3-.44.55-.19.3-.22.54-.16.55-.22.3-.41.25-.22.59-.22.25-.17.6-.21.25-.22.3-.2.54-.21.6-.22.25-.17.3-.22.54-.21.6-.19.54-.22.55-.21.3-.17.54-.22.3-.22.55-.19.54-.21.6-.22.54-.17.55-.21.55-.22.59-.19.55-.21.54-.17.6-.22.54-.21.84-.21.3-.2.55-.21.54-.17.55-.22L589,250l.84-.21.85-.19.54-.22.84-.16.6-.21.84-.22.84-.21.84-.19.55-.21.84-.17.84-.21,1.14-.21,1.09-.18.84-.22,1.09-.21,1.14-.16,1.14-.21,1.08-.18,1.44-.21,1.38-.2,1.39-.21,1.38-.16,2-.2,1.68-.18,1.68-.2,2.52-.15,2.47-.19,3.65-.16,3.9-.18,23.15.25,3.89.26,3.6.23,2.81.26,2.22.19,1.67.24,1.93.22,1.67.24,1.38.19,1.67.24,1.38.23,1.38.24,1.13.21,1.09.23,1.13.18,1.13.24,1.08.23,1.14.21.83.23.54.23,1.13.18.79.23.59.21.83.23.84.23.84.23.54.18.83.23.84.2.83.23.54.23.59.23.54.18.84.23.54.2.29.22.84.23.24.23.59.18.54.22.54.21.29.22.54.23.54.18.59.23.54.22.3.2.54.23.24.22.59.18.29.23.54.23.54.2.59.23.25.22.29.18.24.22.3.22.54.21.58.23.25.22.29.18.25.22.29.22.29.2.3.23.24.22.54.18.29.23.3.2.24.22.29.23.54.22.3.18.29.22.24.42.59.23.24.23.29.39.3.2.24.23.54.22.29.4.29.23.29.42.25.22.29.18.24.22.29.42.29.45.3.18.24.22.3.22.24.2.29.4.24.45.29.42.29.4.29.44.24.42.29.23.25.39.29.23.29.64.29.4.24.42.29.62.23.64.29.45.29.4.24.86.29.59.28.67.24.82.28.84.24,1Zm-36.8,2.76.23,1-.06,4.58-.26,1.05-.31.64-.3.61-.31.42-.25.39-.3.44-.25.42-.3.21-.3.17-.25.44-.3.2-.3.22-.25.22-.3.16-.25.22-.3.2-.3.22-.3.21-.25.22-.54.17-.3.22-.3.19-.54.22-.3.22-.55.21-.25.17-.59.22-.55.19-.55.21-.29.22-.6.22-.54.16-.55.22-.55.19-.54.22-.84.21-.3.17-.84.21-.85.21-.54.19-.84.22-.84.16-.85.21-1.13.21-1.09.21h-.84l.29.6.24.44.28.65.29.62.24.64.29.62.23.64.29.62.29.64.29.6.23.66.29.6.24.66.29.6.29.44.28.62.24.65.29.62.24.59.29.67.23.59.29.67.29.59.29.67.23.59.29.65.24.61.29.65.29.44.28.62v.64l1.63-.2,1.38-.21,1.14-.18,1.14-.21.79-.22.84-.16,1.14-.21.84-.21.84-.19.84-.21.85-.21.79-.17.89-.21.79-.21.84-.19.85-.21.84-.22.84-.16.59-.22.85-.18.54-.22.55-.21.54-.22.6-.17.84-.21L694,313l.84-.22.6-.21.54-.22.55-.16.3-.22.54-.19.55-.22.59-.21.55-.22.54-.17.3-.22.55-.19.3-.21.54-.22.3-.17.55-.22.59-.21.55-.19.25-.22.3-.17.54-.22.6-.21.25-.22.3-.19.25-.22.59-.17.3-.22.25-.22.3-.21.25-.2.3-.22.3-.17.25-.22.59-.21.25-.42.3-.22.3-.16L710,305l.3-.22.3-.42.25-.22.3-.17.3-.44.25-.19.3-.22.25-.39.31-.41.29-.22.31-.44.25-.17.3-.42.25-.44.3-.39.3-.22.3-.41.26-.44.3-.39.25-.42.3-.61.26-.42.3-.39.3-.66.31-.59.25-.66.31-.59.26-.86.3-.83.32-1.25.32-1.68.13-9.82-.27-1.87-.27-1.26-.29-1L718,275l-.29-.87-.23-.62-.29-.64-.29-.62-.29-.64-.24-.4-.29-.44-.24-.65-.29-.39-.24-.43-.29-.44-.29-.4-.29-.2-.24-.45-.29-.39-.25-.23-.29-.42-.29-.22-.29-.4-.24-.22-.3-.2-.24-.45-.29-.18-.29-.22-.24-.42-.3-.23-.29-.22-.24-.18-.29-.44-.3-.2-.24-.23-.59-.18-.24-.44-.3-.23-.29-.2-.54-.22-.24-.18-.3-.22-.29-.23-.29-.22-.25-.2-.29-.23-.54-.17-.29-.23-.3-.22-.53-.23-.25-.2-.54-.23-.29-.17-.59-.23-.24-.23-.54-.2-.3-.22-.59-.23-.24-.18-.54-.22-.59-.23-.54-.2-.29-.23-.54-.23-.54-.17-.59-.23-.54-.23-.54-.2-.54-.23-.59-.23-.54-.18-.54-.22-.84-.23-.54-.21-.59-.22-.54-.23-.83-.18-.54-.23-.84-.23-.59-.2-.83-.24-.54-.17-.84-.23-.83-.23-.84-.23-.54-.21-1.13-.23-.79-.18-.88-.23-.79-.23-.84-.23-1.13-.21-.84-.23-1.08-.19-1.13-.23-1.08-.23-1.38-.24-1.13-.21-1.43-.24-1.33-.18-1.43-.24-1.67-.24-1.68-.21-1.92-.25-2.51-.24-2.52-.2-3.6-.26-7.25-.28-13.37-.14-7.85.11-3.6.19-2.77.14-2.22.2-2,.2-2,.17-1.38.21-1.39.21-1.38.15-1.43.21-1.09.19-1.14.21-.84.21-1.09.21-1.14.16-.84.21-.84.19-1.09.21-.84.21-.85.21-.84.17-.84.21-.84.19-.84.21-.55.22-.84.21-.84.16-.6.22-.79.19-.59.21-.85.21-.24.17-.85.22-.59.21-.79.19-.6.22-.55.21-.54.17-.6.21-.54.22-.55.19-.59.22-.55.21-.54.17-.3.22-.84.21-.3.19-.55.22-.25.22-.59.16-.55.22-.54.21-.3.2-.25.22-.6.21-.3.17-.25.22-.54.19-.3.22-.3.22-.55.21-.3.17-.24.22-.6.19-.25.22-.3.22-.3.22-.25.17-.3.22-.29.19-.25.22-.3.22-.26.39-.59.22-.25.19-.3.22-.3.22-.25.17-.3.21-.3.22-.25.2-.29.22-.31.39-.25.22-.3.21-.29.2-.26.39-.3.22-.29.22-.26.41-.3.22-.25.17-.3.44-.3.42-.3.21-.25.39-.3.44-.25.2-.3.39-.31.44-.25.42-.3.61-.31.41-.25.62-.3.41-.26.66-.3.59-.31.84-.31.85-.26,1-.31,1.25-.27,1.42-.17,12.17.23,1.43.28,1.08.24.82.28.62.29.86.28.62.25.42.29.4.23.64.29.4.29.44.25.23.29.42.29.4.24.22.29.42.25.23.29.17.29.45.29.22.24.43.3.17.24.22.29.23.29.42.25.23.29.17.3.23.24.22.29.2.3.22.24.23.29.4.29.2.54.22.3.23.24.22.29.18.29.42.54.23.25.22.29.23.29.17.25.23.59.2.24.22.29.23.3.22.24.18.59.23.24.2.3.22.29.22.54.18.24.23.59.22.54.21.3.22.54.18.54.23.58.23.25.22.83.21.59.22.54.18.54.23.54.23.59.22.54.21.84.23.54.18.54.22.59.23.83.23.54.2.84.23.54.18.59.23.83.23.79.21.59.22.84.24.83.18.54.22.84.23.83.21.84.23.84.23.83.18,1.08.24.84.23,1.13.21,1.13.23,1.09.23,1.38.19,1.42.24,2.22.24,2.76.25v-.44l.3-.39.25-.22.3-.64.31-.39.25-.22.3-.63.3-.22.26-.62.3-.41.3-.39.25-.64.31-.44.3-.39.25-.42.3-.61.31-.41.25-.44.3-.39.3-.42.26-.44.3-.61.25-.42.3-.39.31-.44.3-.41.25-.4.31-.63.25-.39.3-.44.3-.42.25-.39.31-.44.3-.42.25-.61.31-.41.25-.45.3-.39.3-.63.31-.39.25-.42v-.22l-1.38-.24-1.38-.23-1.67-.19-1.38-.24-1.13-.21-1.13-.23-1.09-.24-.83-.23-1.13-.18-.84-.23-.84-.21-.54-.22-.83-.24-.84-.18-.83-.23-.54-.22-.59-.21-.54-.23-.54-.17-.84-.23-.54-.23-.54-.23-.59-.2-.54-.23-.54-.18-.59-.23-.29-.22-.54-.23-.24-.2-.54-.22-.3-.18-.29-.22-.29-.23-.54-.23-.25-.2v-.39h-.59l-.29-.44-.25-.2-.29-.23-.24-.39-.29-.23L594,290l-.25-.22-.29-.4-.29-.45-.24-.64-.28-.62-.29-.81-.22-1.71.05-3.54.27-1.67.3-.81.31-.66.25-.59.31-.44.3-.39.25-.22.3-.42.3-.44.25-.17.3-.22.25-.19.3-.44.3-.17.55-.21.3-.22.24-.2.3-.22.3-.17.55-.21.3-.22.25-.22.54-.19.3-.22.6-.16.54-.22.55-.22.59-.21.55-.19.54-.22.85-.16.84-.21.84-.22.84-.21,1.09-.18.84-.22,1.14-.16,1.09-.21,1.43-.2,1.09-.19,1.43-.21,1.39-.2,2-.15,1.63-.21,2-.17,2.23-.2,3.65-.18,23.69.25,3,.25,2.22.25,1.92.22,1.43.23,1.38.19,1.38.24,1.38.23.83.21,1.13.23,1.14.24.78.18.89.23,1.08.21.84.23.83.23.54.22.84.19.84.23.54.2.54.23.54.22.58.23.84.18.24.23.59.2.54.23.3.22.54.23.29.18.24.22.59.2v.45h.54l.24.18.3.22.59.23.24.42.29.18.24.22.29.45.3.2.24.39.29.23.29.44.25.2.29.4.24.45.28.64.29.62Z"/><path class="cls-1" d="M721.27,376.79l.22,1.7-.12,8.82-.28,1.89-.31,1.25-.26.84-.31,1.25-.31.64-.3.81-.26.83-.31.64-.25.44-.3.61-.31.64-.3.61-.25.22-.31.41-.3.62-.3.41-.26.44-.3.39-.25.22-.3.22-.3.59-.3.44-.25.22-.3.41-.31.39-.25.22-.3.42-.3.44h-.54v.39l-.3.22-.25.42-.3.22-.3.39-.25.22-.3.22-.3.21-.25.42-.3.17-.3.22-.3.44-.25.19-.3.44-.25.17-.3.22-.3.22-.3.41-.25.22-.3.39-.3.22-.25.42h-.6v.4l-.25.21-.3.22-.3.42-.3.22-.25.39h-.55v.45l-.3.19-.3.44-.31.39h-.54V414l-.31.44-.25.22h-.59V415l-.25.22-.31.41-.29.22-.31.39-.25.22-.3.42h-.54v.44l-.29.17-.31.44-.25.42-.3.22-.3.39-.55.21-.3.2-.25.44-.3.17-.3.44-.25.22-.3.41h-.54v.39l-.3.22-.3.41-.25.22-.3.22-.3.61-.55.2v.44l-.55.21-.3.39-.3.22-.3.22-.25.42-.3.17-.3.22-.3.21-.25.22-.3.2-.25.22-.3.16-.3.44-.54.22-.3.19-.25.22-.3.39-.3.22-.55.22-.3.41-.6.22-.25.17-.3.22-.24.22-.6.21-.3.19-.54.22-.3.17-.55.22-.3.21-.25.22-.59.19-.55.22-.3.17-.25.22-.59.21-.25.2h-.89v.44l-.79.16-.3.22-.3.22-.84.21-.54.2-.85.21-.59.16-.3.22-.55.22-.84.21-.84.19-.54.21-.55.22-.6.22-.84.16-.84.21-.84.19-.55.22-1.13.21-.85.21-.84.16-1.14.21-1.13.21-.8.19-1.13.21-1.44.2-1.38.16-1.14.21-1.68.21-1.68.2-2,.17-2.52.2-2.81.14-3.66.18-19.88-.21-3.65-.26-3.11-.2-2.51-.25-2-.22-2-.24-1.68-.24-1.38-.24-1.43-.19-1.67-.24-1.13-.23-.79-.2-1.13-.24-.89-.23-1.08-.18L597,436l-1.14-.24-.54-.23-.88-.2-.79-.23-.88-.18-.54-.23-.54-.23-.59-.23-.84-.2-.83-.23-.54-.23-.54-.23-.3-.17-.83-.23-.54-.21-.59-.22-.54-.23L585,432l-.54-.18v-.44h-.83l-.3-.2-.54-.23-.29-.22-.54-.18-.29-.22-.54-.21-.3-.22-.59-.23-.24-.22-.29-.18-.54-.23-.3-.2-.29-.22-.54-.23-.24-.22-.3-.18-.29-.22-.29-.23-.54-.2-.3-.23-.24-.22-.29-.4-.29-.22-.54-.2-.3-.23-.24-.22-.29-.23-.3-.17-.29-.23-.24-.42-.54-.23-.29-.39-.29-.23-.3-.2-.24-.44-.29-.23-.54-.18v-.44l-.3-.23-.29-.2-.24-.39-.3-.23-.29-.44-.29-.43-.24-.44-.29-.18-.24-.42-.29-.44-.29-.62-.29-.42-.24-.45-.29-.62-.28-.64-.24-.4-.29-.64-.29-.62-.24-.64-.28-.62-.29-.67-.29-.59-.24-.67-.29-.42-.24-.62-.28-.64-.29-.62-.29-.42-.24-.67-.29-.62-.29-.42-.23-.84-.29-.42-.29-.62-.24-.65-.29-.44-.28-.62-.24-.64-.29-.62-.29-.64-.23-.62-.29-.65-.29-.61-.24-.65-.29-.44-.29-.62-.28-.65-.24-.39-.29-.65-.24-.61-.29-.65-.29-.44-.28-.62-.24-.82-.29-.67-.28-.81-.24-.87-.28-1-.28-1.29-.22-1.45.14-9.9.26-1.64.32-1.26.31-1.08.26-1,.3-.61.31-.86.26-.83.31-.86.3-.62.31-.41.25-.61.3-.42.26-.44.3-.39.3-.64.3-.44.26-.39.3-.44.3-.41.25-.17.3-.44.3-.42L561,362l.3-.17.3-.44.25-.19.3-.66h.55V360h.6v-.45l.25-.22.3-.16.3-.22.3-.42.25-.44.55-.17.3-.44.6-.19.25-.21.3-.44.3-.17.54-.22.3-.19.25-.22.3-.44.6-.17.54-.21.25-.22.3-.2.3-.22.3-.21.25-.17.3-.22.59-.22.25-.22.3-.19.25-.22h.59v-.4l.3-.22.79-.21.3-.19.6-.22.25-.22.59-.21.25-.17.59-.22.25-.19.6-.22.55-.21.29-.22.55-.17.55-.21.59-.22.55-.19.3-.22.54-.21.6-.17.54-.22.3-.21.55-.19,1.13-.21.3-.22.55-.17.54-.21L587,347l.59-.19.55-.21.54-.22.89-.21.85-.17.54-.21.84-.19.85-.21.54-.22L594,345l.89-.16.8-.22.89-.21,1.14-.21.79-.19,1.14-.21.84-.16,1.13-.21,1.39-.21.89-.21,1.39-.18,1.38-.21,1.43-.2,1.39-.21,2-.15,1.69-.2,2-.18,2.23-.2,2.56-.19,3.07-.14,4.19-.15,22.21.23,4.19.24,3.06.21,2.51.25,2.56.25,1.68.21,1.67.24,2,.19,1.37.24,1.68.24,1.13.23,1.13.21,1.08.24,1.43.23,1.38.24.84.18.83.23,1.14.21,1.08.23.59.23.83.23,1.14.19.83.23.54.22.84.23.83.21.59.23.79.18.88.23.54.23.59.23.54.2.84.23.54.23.54.17.29.23,1.13.23.59.21v.44h.54l.84.19.54.22.29.23.54.2.59.23.24.22.59.18.54.23.54.23.29.22.54.2.3.23.29.17.54.23.54.23.29.22.59.21.25.22.59.23.24.22.59.18.24.42.29.23.3.22.29.23.24.17.54.23.3.22.29.2.29.23.25.22.29.18.29.22.25.23.59.23.24.2.29.22.3.18.29.22.24.22.54.23.29.65.59.17.24.45.29.2.3.22.24.23.29.17.29.45.25.22.29.2.29.4v.45h.54l.29.23.24.64.29.17.3.23.24.42.29.45.29.39.29.23.24.42.29.45.24.39.29.45.29.59.29.45.24.22.29.65.29.61.29.43.24.61.28.65.24.62.29.86.28.62.28,1.09.24,1Zm-98.52,43.49,4.49.22,21.61.24,3.95-.14,3.36-.18,2.22-.17,2.27-.2,1.93-.2,2-.2,1.43-.16,1.39-.21,1.68-.2,1.13-.19,1.44-.2,1.09-.21,1.13-.16,1.09-.21,1.14-.21.84-.19.84-.21,1.14-.21.84-.16.85-.22.84-.21.84-.19.55-.21.84-.22.84-.21.89-.16.55-.22.84-.19.54-.21.6-.22.54-.21.85-.17.59-.21.55-.22.54-.21.6-.19.54-.22.6-.17.54-.21.25-.22.89-.21.25-.2.6-.21.55-.22.29-.17.55-.21.3-.22.54-.19.3-.22.55-.22.3-.21.54-.17.3-.22.3-.19.25-.22.55-.22.3-.22.29-.17.3-.21.55-.22.3-.19.25-.22.3-.22.3-.17.25-.22.3-.22.29-.19.3-.22.25-.22.3-.22.25-.17.3-.22.3-.19.3-.22.25-.22.3-.22.3-.16.25-.22.29-.22.3-.22.26-.42.29-.17.3-.21.31-.44h.54v-.42l.25-.22.3-.16.31-.44.29-.2.25-.22.31-.44.29-.17.26-.41.3-.22.3-.44.25-.17.3-.44.3-.42.25-.39.31-.44.3-.41.25-.44.3-.39.3-.42.26-.61.3-.44.31-.64.3-.61.26-.64.3-.83.26-.86.31-1,.32-1.26.32-2.28.13-8.82-.27-2.12-.28-1.28-.28-1.26-.23-.64-.29-.82-.24-.66-.28-.6-.29-.67-.29-.61-.24-.43-.29-.39-.29-.45-.24-.42-.29-.45-.29-.39-.24-.42-.3-.23-.29-.4-.24-.22-.29-.45-.29-.42-.25-.17-.28-.45-.3-.23-.24-.19-.29-.23-.3-.22-.29-.4L710,363l-.3-.2-.24-.22-.29-.45-.29-.17-.3-.23-.24-.2-.29-.22-.3-.23-.24-.39-.29-.23-.29-.22-.25-.2-.29-.23-.59-.22-.24-.4-.29-.22-.25-.2-.29-.23-.59-.23-.24-.22-.3-.18-.29-.22-.24-.2-.3-.23-.29-.22-.54-.23-.29-.17-.3-.23-.24-.22-.29-.2-.54-.23-.3-.22-.54-.18-.29-.23-.54-.22-.29-.23-.3-.2-.54-.23-.29-.17-.54-.23-.29-.22-.54-.23-.29-.2L695,353l-.59-.23-.54-.22-.54-.18-.3-.23-.54-.2-.88-.23-.54-.23-.54-.23-.59-.17-.54-.23-.54-.23-.84-.21-.59-.22-.54-.23-.54-.18-.88-.23-.84-.23-.54-.2-.83-.23-.84-.23-.83-.19-.84-.23-.84-.23-.83-.2-1.13-.24-.84-.23-1.13-.23-.84-.18-1.13-.24-1.08-.2-1.13-.24-1.38-.23-1.14-.24-1.13-.18-1.67-.24-1.38-.24-1.68-.24-2-.22-2.26-.24-2.22-.2-3.06-.25-5.08-.28-21.31-.22-5,.16-2.82.19-2.52.15-2.27.2-1.68.18-1.68.2-1.43.21-1.39.2-1.38.16-1.14.21-1.14.21-1.09.21-1.14.18-1.13.21-.84.17-.85.21-1.13.21-.85.21-.84.19-.84.21-.84.22-.84.16-.84.21-.6.22-.84.18-.84.22-.55.21-.54.17-.85.21-.59.22-.84.19-.55.21L587,350l-.55.16-.84.22-.55.21-.59.22-.55.19-.54.21-.6.17-.54.22-.6.21-.55.22-.29.19-.85.21-.3.22-.54.22-.55.16-.3.22-.54.19-.6.22-.25.22-.59.21-.25.17-.6.22-.25.22-.59.19-.3.22-.25.22-.54.16-.3.22-.3.22-.55.21-.3.2-.25.22-.3.17-.29.21-.55.22-.3.22-.3.19-.3.22-.25.22-.3.39-.54.22-.3.19-.3.22-.26.39-.29.22-.3.22-.25.22-.3.19-.3.39-.25.22-.3.22-.3.22-.3.41-.25.22-.3.39-.25.22-.31.42-.3.21-.3.39-.25.22-.3.42-.3.44-.25.39-.31.44-.3.42-.25.39-.3.44-.31.63-.25.62-.3.41L560,369l-.25.64-.31.84-.31.85-.26.81-.31,1.06-.31,1.47-.33,2.29-.13,9.28.26,2.29.28,1.26.28,1.07.24.86.28.82.29.61.24.65.29.62.29.44.23.64.29.4.29.45.24.42.3.4.29.44.24.42.29.4.29.23.24.44.29.2.29.4.3.22.24.23.29.42.24.22.3.23.29.4.29.22.25.2.29.22.29.23.25.22.29.18.29.22.24.42.59.23.29.4.54.23.24.44.3.2.29.23.29.17.54.23.3.23.29.22.24.2.3.22.24.23.29.17.3.23.54.23.29.2.24.22.3.23.59.17.24.23.29.22.29.23.55.2.29.23.54.17.29.23.25.22.58.23.3.2.54.23.24.22.59.18.54.23.29.22.54.21.59.22.54.23.3.23.54.17.54.23.58.2.54.23.59.23.54.23.54.17.89.24.54.22.54.23.59.2.83.23.84.19.54.22.84.23.83.23.54.21.89.23.78.23,1.14.18.88.23.79.23,1.13.21,1.13.24,1.13.23,1.09.18,1.13.24,1.43.23,1.37.22,1.14.23,1.67.24,1.68.19,2,.24,2,.24,2.22.25,2.81.23Zm61.19-42,.23,1.09-.09,6.08-.26.81-.3.86-.31.44-.25.39-.3.42-.3.44-.25.39-.31.41-.3.22-.25.22-.3.39-.3.22-.25.22-.29.19-.3.22-.3.17-.25.22-.3.22-.25.22-.3.19-.3.22-.54.21-.3.22-.3.17-.25.22-.6.19-.25.22-.3.22-.59.21-.25.17-.3.22-.55.22-.29.19-.55.22-.55.21-.54.17-.6.22-.54.21-.3.22-.84.19-.84.21-.6.17-.84.21-.84.21-1.09.21-.84.19-1.14.21-1.14.21-1.38.16-1.44.2-1.68.21-2,.17-2,.2-2.77.19-3.11.14-5.63.17-9.22-.1-5.33-.28-3.35-.21-2.81-.25-2.27-.25-2.22-.22-1.67-.24-1.43-.23-1.38-.19-1.43-.24-1.08-.23-1.13-.21-.84-.23-1.13-.23-.84-.24-.54-.17-.83-.23-.59-.21-.54-.22-.54-.23-.59-.23-.29-.18-.54-.22-.54-.23-.3-.2-.54-.23-.29-.22-.59-.18-.24-.22-.54-.23-.3-.23-.59-.2-.24-.22-.29-.18-.25-.22-.59-.23-.29-.23-.24-.2-.3-.22-.58-.23-.25-.4-.29-.22-.24-.2-.3-.22-.29-.45-.29-.18-.24-.44-.29-.2-.29-.45-.24-.4-.29-.42-.29-.44-.24-.62-.29-.87.1-7.11.31-.86.26-.61.3-.64.3-.39.25-.22.3-.41.31-.44.24-.17.3-.22.31-.44.29-.2.25-.22.3-.17.25-.21.3-.22.3-.22.3-.19.25-.22.3-.22.3-.17.54-.22.3-.22.25-.19.6-.21.3-.22.25-.22.29-.17.55-.22.3-.19.54-.22.3-.22.6-.21.25-.17.54-.22.6-.21.55-.19.59-.22L605,368l.84-.17.54-.21.85-.22.84-.18.89-.22.79-.21,1.14-.21.84-.16,1.43-.21,1.09-.18,1.44-.21,1.38-.21,1.68-.2,2-.15,2.57-.2,3.9-.18,20.18.22,3.11.25,2.51.25,2,.2,1.68.24,1.67.24,1.43.23,1.08.21,1.43.24,1.08.18,1.13.24.84.23,1.13.23,1.13.21.84.23.84.23.83.18.84.23.83.23.59.21.79.23.54.22.59.18.54.23.54.23.59.22.29.2.54.23.54.18.29.22.3.23.54.23.29.2.29.22.25.23.29.17.24.23.3.22.29.2.29.22.25.23.29.22.29.4.24.2.29.45.3.22.24.4.29.44.29.43.24.39.29.65Zm-60.86,17.87,3.36.21,23.88.26,1.92,0-1.08-.19L650,396.2l-1.38-.21-2-.25-2.27-.24-3-.26-18.81-.2-2.81.19-2.22.2-1.19.06,1.73.17,2.51.22Z"/><path class="cls-1" d="M553.87,443.85,720,445.63l-.53,38-.32,1.55-.26,1.35-.26.81-.31.79-.26.76-.25.59-.31.58-.25.42-.25.37-.31.58-.25.59-.25.39-.3.37-.26.42-.25.17-.3.41-.25.37-.25.39-.25.41-.3.37-.5.22-.3.36-.25.39-.25.2-.26.39-.54.19-.25.17-.3.42-.25.17-.25.41-.55.17-.25.22-.3.36-.25.22-.25.2-.3.17-.25.19-.25.22-.3.37-.5.21-.3.37-.25.17-.25.22-.25.36-.54.22-.25.37-.3.21-.25.2-.26.39-.54.19-.25.39-.25.2-.3.17-.25.21-.25.37-.55.22-.25.36-.3.2-.25.22-.25.36h-.54v.39l-.25.2-.3.16-.25.22-.25.37-.54.22-.25.19-.26.39-.3.2-.25.39-.54.19-.25.17-.26.59h-.79v.42l-.25.17-.3.21-.26.57H695v.39l-.25.2-.3.39-.25.37h-.79v.42l-.25.17-.3.41-.25.17-.54.22-.26.36-.25.42-.54.17-.26.41h-.54v.39l-.25.14-.25.22-.55.19-.25.17-.3.22-.25.2-.25.17-.54.21-.25.2-.25.17-.3.21-.25.2L686,518l-.5.21h-.54v.37l-.25.21-.79.19-.55.17-.25.22-.54.19-.25.17-.55.22-.25.19-.79.16-.49.22-.55.19-.54.17-.25.19-.8.17-.54.21-.5.19-.79.17-.55.21-.79.19-.49.17-.8.21-.79.19-.54.17-1,.21-.8.19-.79.16-.74.21-1.09.19-.74.16-1.09.21-1,.19-1.33.16-1,.21-1.29.18-1.33.16-1.29.18-1.58.21-2.13.15-2.07.17-2.13.2-2.37.15-2.86.16-3.65.14-22.56-.24-4.43-.22-3.16-.23-2.37-.2-2.07-.24-1.87-.22-1.82-.19-1.58-.24-1.28-.21-1-.19-1.08-.2-1-.24-1-.18-1-.21-.79-.23-1-.18-.79-.21-.79-.23-.79-.18-.78-.2-.79-.23-.54-.18-.79-.21-.49-.22-.54-.18-.78-.21-.49-.22-.79-.19-.54-.2-.54-.23-.49-.17-.54-.21-.54-.17-.49-.21-.54-.22-.25-.18-.54-.2-.54-.23-.73-.18-.3-.2v-.39h-.74l-.3-.2-.24-.22-.54-.18L577,517l-.29-.22-.49-.18-.3-.2-.24-.22-.54-.18-.25-.2v-.39h-.54l-.25-.2-.24-.22-.29-.18-.5-.2-.29-.23-.24-.15-.49-.22v-.59h-.54l-.24-.17-.24-.43-.29-.37-.49-.22-.3-.18-.24-.42-.24-.37v-.4h-.54l-.24-.2-.29-.6-.24-.39-.24-.42-.29-.55-.24-.2-.24-.59-.29-.4-.24-.42-.25-.37-.28-.6-.25-.39-.24-.42-.29-.38-.24-.59-.24-.18-.24-.42-.29-.59-.24-.37-.24-.4-.24-.59-.29-.42-.24-.18-.24-.59-.29-.6-.24-.42-.24-.37-.29-.4-.25-.2-.24-.59-.28-.59-.25-.38-.24-.39-.29-.6-.24-.2-.24-.59-.29-.4-.24-.59-.24-.37-.29-.42-.24-.18-.24-.59-.29-.42-.24-.4-.24-.57-.29-.4-.24-.42-.25-.37-.23-.59-.24-.6-.29-.39-.24-.6-.24-.59-.29-.59-.24-.6-.24-.57-.28-.59-.24-1-.23-.79-.28-1-.24-1.18ZM615.34,510l4.19.24,30.15.33,3.9-.16,2.91-.19,2.37-.12,2.08-.2,2.07-.15,1.58-.18,1.88-.2,1.29-.16,1.33-.18,1.54-.21,1.33-.16,1-.18,1.29-.21,1.08-.16,1-.19,1-.21,1.34-.16.79-.19,1-.21,1-.16.79-.19.79-.21,1-.16.79-.19.8-.21.79-.17.79-.18.79-.17.79-.21.8-.19.49-.17.79-.19.8-.21.79-.16.54-.19.8-.22.49-.16.55-.2.79-.21.55-.17.49-.19.55-.21.49-.17.55-.19.55-.22.49-.16.55-.2.25-.21.54-.17.25-.19.55-.22.49-.17.3-.19.25-.17.55-.22.25-.19.54-.17.25-.22.25-.19.55-.17.25-.19.25-.22.29-.17.25-.19.25-.22.3-.17.25-.2.25-.22.25-.17.3-.19.25-.22.25-.17.3-.19.25-.22.25-.17.29-.19.26-.4.25-.19.3-.39.25-.2.25-.16.3-.42.25-.17.25-.22.3-.59.25-.19.25-.37.3-.39.26-.41.25-.37.25-.39.3-.42.26-.54.25-.58.31-.59.25-.59.26-.81.26-1,.31-1,.27-1.55.75-36.66L557.25,446,557,481.71l.23,1,.29.79.23,1,.24.6.29.59.23.57.24.59.29.6.24.59.24.4.29.59.24.37.24.6.29.42.24.4.24.37.29.42.24.37.25.4.29.42.24.17.24.43.29.17.25.42.54.18.24.37.24.23.25.2.29.17.24.23.25.2.24.17.29.23.25.19.24.18.3.22.24.2.24.18.3.22.49.21.29.17.24.23.25.2.54.17.24.2.3.23.24.17.54.21.24.22.25.17.54.21.24.17.25.23.54.2.49.18.29.22.49.2.54.18.25.23.54.2.24.17.54.23.54.2.49.18.54.23.54.2.79.18.49.23.54.2.49.18.79.23.54.2.49.18.78.21.79.23.54.17.79.21.78.18.54.23.74.2.79.18.78.23.79.21.79.18.79.23,1,.21.79.18.78.23,1,.21,1.08.18,1,.23,1,.21,1,.18,1.33.24,1.33.21,1.28.19,1.33.23,1.82.22,1.58.19,2.31.24,2.37.18Zm-24.82-43.4,92.23,1-.13,8.84-.31,1.55-.26.81-.26.76-.3.59-.26.58-.25.37-.25.42-.3.36-.26.39-.25.2-.3.39-.25.19-.25.4-.3.19-.25.22-.25.17-.3.19-.25.39-.49.19-.3.22-.25.17-.25.2-.3.17-.5.21-.29.2-.5.16-.3.22-.5.19-.29.17-.5.22-.55.19-.49.17-.79.19-.55.21-.79.17-.75.18-.79.22-1,.16-1.08.18-1,.21-1.34.16-1,.19-1.28.21-1.59.15-1.58.18-1.58.21-1.83.15-2.12.17-2.62.15-3.41.18-5.77.14-9.92-.11-7.6-.27L619,490l-3.16-.2-2.36-.23-1.53-.18-1.58-.24-1.33-.21-1-.19-1-.23-1.09-.21-.78-.18-.74-.23-.79-.2-.78-.18-.54-.23-.79-.21-.49-.17-.54-.23-.79-.21-.54-.18-.49-.2-.29-.22-.49-.18-.3-.2-.49-.23-.29-.17-.49-.2-.25-.23-.29-.17-.49-.21v-.39h-.55v-.37h-.5l-.29-.23-.24-.37-.24-.22-.3-.2-.24-.4-.24-.37-.29-.42-.24-.4-.24-.37-.29-.59-.24-.8-.23-.76-.29-1-.22-1.58-.21-2.34Z"/><path class="cls-1" d="M552.37,530.86l167,1.78-.9,65.24-1.39.18-.54.22-.55.17-.59.21-.25.2-.85.21-.54.21-.3.22-.3.17-.54.22-.55.19-.84.21-.25.17-.6.22-.54.21-.3.2-.55.21-.54.22-.55.16-.3.22-.25.22-.84.19-.54.22-.6.16-.25.22-.54.22-.6.19-.55.21-.29.22-.55.17-.55.21-.29.2-.55.21-.55.22-.54.17-.6.21-.54.22-.25.19-.6.22-.54.16-.3.22-.55.19-.79.22-.3.21-.3.22-.84.17-.54.21-.25.2-.3.21-.85.22-.54.16-.3.22-.55.22-.54.19-.55.21-.59.22-.55.17-.3.21-29.06-.31v-.39h-.54l-.24-.44-.59-.2.42-30.36h-.84l-.22,16.45-.55.16-1.09.21-.3.42-.25.39-.3.22-.3.22-.55.19-.29.22-.25.17-.3.21-.26.44-.29.2-.25.22-.3.17-.6.21-.25.2-.3.21-.25.22-.3.22-.3.39h-.54v.59l-.54.21-.3.22-.25.2-.3.21-.3.4-.25.21-.55.22-.3.19-.25.22-.59.17-.25.44-.31.42-.54.21-.3.17h-.54v.42l-.3.44-.55.17-.25.22-.3.41-.3.22-.54.17-.3.22-.25.19-.3.22-.25.22-.3.22-.25.17-28.57-.31-.29-.17v-.45h-.54l-.24-.23.39-28-18.85-.2-.29,20.58-.31.84-.31.81-.25.85-.31.81-.27,1.26-.3.61-.26,1-.31,1-.31,1-.26.86-.31.81-.3.61-.26.64-.54.17-.6.21L556.27,609l-.24-.22-.59-.18-.25-.22-.29-.42-.28-.82-.24-.84-.28-.64-.24-1-.28-.82-.29-.84-.23-.81-.29-.64-.28-1-.23-1.06-.29-.82-.24-.64-.28-.62Zm102.46,24.58,29.06.31L683.35,595l31.88.34.83-60.23L555.64,533.4l-.85,61.26,33.8.36.56-40.28,35.48.38-.5,36.34,30.19.32Z"/><path class="cls-1" d="M676.63,613.61l41.84.45-.54,38.85h-.59v.59l-.25.44-.3.42-.26.44-.3.39-.3.42-.3.22-.25.61-.3.22-.3.21-.26.64-.3.39-.3.22-.25.42-.31.61-.3.22-.25.64-.3.21-.3.39-.3.44-.26.42-.3.39-.25.44-.31.64-.3.39-.3.22-.25.41-.3.44-.3.17-.3.44-.25.42-.31.39-.25.44-.3.64-.3.39-.3.22-.26.41-.3.44-.3.61-.31.42-.25.22-.3.39-.25.64-.3.22-.31.61-.3.22-.24.19-.31.44-.3.61-.25.44-.3.2-.3.39-.26.44-.3.64-.84.21-.3.17-33.41-.36-2-.19-2.22-.25-2.27-.24-2.51-.23-2.22-.24-2-.24-2.56-.25-2.22-.2-2.26-.25-2.22-.22-2.27-.24-2.22-.25-2-.24-2.27-.2-2.51-.25-2-.24-2.22-.24-2.21-.22-2.27-.25-2.27-.2-2.22-.24-2.51-.25-2-.24-2.27-.22-2.26-.25-1.68-.24-.54-.23-.29-.17-.25-.23-.29-.2-.29-.44-.23-.84L608,665.6l-.29-.64-.23-1-.28-1.06-.29-.82-.28-1.08-.24-.84-.28-.87-.23-1.26-.28-.81-.28-1.06-.29-.65-.23-1.06-.29-1-.28-1.08-.28-1-.23-.84-.09-.86-.5,21.46-.26,1.48h-.59v.4l-.3.44-.55.21-32.86-.35-.84-.23-.29-.45-.24-.17-.29-.42-.29-.45-.29-.4-.54-.22-.29-.87-.24-.17-.29-.45-.29-.42-.25-.23-.28-.44-.3-.4-.29-.42-.24-.22-.29-.62-.24-.23-.29-.42-.29-.22-.29-.4-.25-.42-.29-.45-.29-.4-.24-.22-.29-.42-.29-.62-.24-.22-.29-.23-.29-.42-.25-.4-.29-.44-.29-.43-.29-.22L558,660l-.29-.39-.29-.42-.24-.23-.3-.22-.28-.62-.25-.42-.29-.4-.29-.23-.29-.42-.24-.44-.29-.4-.24-.42-.29-.23-.3-.22-.28-.62-.25-.22-.29-.23-.29-.42-.29-.4-.24-.64-.54-.23-.28-.84-.3-.2-.29-.44-.24-.4-.59-.23.51-36.78,43.57.46.24.62.28,1.26.28.87.29,1,.23.84.29.87.23.84.28,1,.29.86.28.84.24.82.28.86.28,1.06.23,1,.29.64.24.84.28,1.09.28.81.28,1.07.24.81.28.87.29.84.28,1,.23.87.29.84.23,1.08.29.82.28.84.09.86.47-20.21,1.14-.16,1.68-.2,2.23-.2L610,619l2.51-.2,2.57-.19,2-.2,2-.15,2.22-.2,2.52-.19,2.27-.18,2.28-.19,2.22-.2,2-.15,2.52-.2,2.22-.2,2.27-.19,2.82-.17,2-.2,2.23-.2,2.27-.15,2.52-.19,2.27-.17,1.93-.21,2.52-.19,2.57-.19,2-.16,2.23-.19,2-.2,2.52-.13,2.52-.19,2.52-.19Zm.33,36.13,2.22.22,35.43.6.47-34-39.92-.25-2.52.19-2,.2-1.68.18-1.93.2-2,.2-2,.2-2.27.15-2.52.2-2.52.19-2.23.17-2.56.2-2.23.2-2.27.14-2.52.2-2.22.2-2.57.19-2.52.17-2.52.2-2.27.19-2.23.15-2.27.2-1.93.2-1.73.18-1.68.2-2.22.2-3.11.19-2.52.14-2.82.2-2.81.16-1.68.21-.85.21h-.59l-.28,20.39h1.13l2.27.25,2.22.19,2.27.25,2.21.24,2.27.25,2.51.22,2.27.25,2.22.19,2.26.25,2.22.25,2.27.24,2.22.22,2.51.25,2.27.25,2.26.24,2.22.2,2.22.24,2.27.22,2.26.25,2.22.25,2.51.24,2.27.2,2.22.25,2.27.24,2.21.25,2.27.22,2.27.24,2.46.2,2.27.25,2.22.24Zm-86.05-33.52-36.76-.39-.44,31.93,36.76.39Z"/></g></svg>