<svg id="color" xmlns="http://www.w3.org/2000/svg" viewBox="0 0 1000 1000"><defs><style>.cls-1{opacity:0.28;}.cls-2{font-size:134.39px;}.cls-2,.cls-3{font-family:Crayon-Social-Art-Regular, Crayon Social Art;}.cls-3{font-size:108.97px;}</style></defs><g id="logocolor"><path d="M108.73,91.72C364-8.81,611.9-9.15,863.65,90.15c0,11.36.39,25.42,0,39.53-3.29,105.33-5.3,210.72-10.67,316-3.66,72.83-46.3,131.62-107.08,181.92-68.55,56.72-148.85,97.86-240.23,123.81-9.05,2.57-20.77,4.06-29.37,1.56-124.39-36.15-229.37-94.34-305.14-186.17-35.88-43.55-48.32-93.2-51.08-143.73C113.94,312.07,112.2,201,108.73,91.72Zm716.93,19.76c-227-85.3-449.73-85-674.7,0-2.37,111.62-6.28,223.43,10.53,334.82,7.11,47.16,26,89.52,62.4,126.58,66.7,68.28,151.28,115,249.61,145.15,9.95,3.06,23.88,2,34.14-1.24,78-24.14,147.45-60.06,207-108.75,54.62-44.7,94-96,100-161.69,3.33-36.24,9.74-72.4,10.54-108.64,1.62-75.46.47-150.92.47-226.38Z"/><path class="cls-1" d="M108.73,98.9C364-1.62,611.9-2,863.65,97.34c0,11.35.39,25.42,0,39.52-3.29,105.34-5.3,210.73-10.67,316-3.66,72.84-46.3,131.62-107.08,181.93-68.55,56.72-148.85,97.86-240.23,123.8-9.05,2.57-20.77,4.06-29.37,1.57C351.91,724,246.93,665.81,171.16,574c-35.88-43.55-48.32-93.21-51.08-143.73C113.94,319.26,112.2,208.14,108.73,98.9Zm716.93,19.76c-227-85.3-449.73-85-674.7,0-2.37,111.63-6.28,223.43,10.53,334.82,7.11,47.16,26,89.53,62.4,126.59,66.7,68.27,151.28,115,249.61,145.15,9.95,3,23.88,2,34.14-1.24,78-24.15,147.45-60.06,207-108.75,54.62-44.7,94-96,100-161.69,3.33-36.24,9.74-72.41,10.54-108.65,1.62-75.45.47-150.91.47-226.37Z"/><g id="Capa_3-2" data-name="Capa 3-2"><path d="M187.77,125.77c3.56,90.69,5.3,181.08,11.22,271.29,2,32.34,6.47,67.25,23,95.69,53.61,92.36,151.55,143.31,263.86,182.59V72.09C381,71,285.15,91.22,187.77,125.77Zm64.61,288.68-.39-82L455.13,202.61v96.91L342.29,374.08,457.18,447l.51,97.36Z"/></g><path d="M708.65,167.74l.28,1.67-.12,8.79-.33,1.87-.31,1.25-.26.81-.31.86-.26,1-.3.62-.31.63-.25.62-.31.63-.3.39-.25.64-.31.39-.25.44-.3.64-.3.39-.3.22-.25.22-.31.41-.25.39-.3.44-.3.42-.3.17-.25.44-.31.64h-.54v.39l-.25.22-.29.2-.31.44-.3.17-.25.41-.3.22-.25.44-.3.17-.3.22-.3.41-.25.22-.3.22-.25.39-.3.42-.3.22-.25.22-.3.39-.3.41-.25.22-.31.39-.3.42-.54.21-.31.39-.25.22-.3.42-.3.39-.25.22-.3.22-.25.41-.3.22-.3.17-.3.44-.25.22-.3.19-.25.39-.3.44-.3.2-.3.22-.26.61-.3.22-.24.19-.3.22-.26.39-.3.22-.3.41-.3.22-.25.22-.3.39-.25.42-.3.22-.3.22-.3.16-.25.64h-.55v.39l-.3.44-.3.22-.25.19-.31.62h-.54v.44l-.3.42H683v.4l-.29.21-.3.2-.26.44-.29.17-.26.44L681,214l-.26.44h-.59v.4l-.25.22-.55.19-.3.22-.3.21-.29.17-.25.22-.55.19-.3.22-.3.22-.25.22-.3.17-.54.21-.3.2-.55.21-.3.22-.3.22-.54.17-.3.22-.25.19-.59.22-.25.21-.85.22-.29.17-.55.21-.3.2-.84.21-.84.21-.25.17-.6.22-.54.21-.84.19-.55.22-.3.16-.55.22-.84.21-.84.22-.54.19-.85.21-.54.17-.89.21-.8.21-.84.21-.84.19-.84.17-1.09.21-.89.21-1.09.18-1.14.21-1.09.21-.84.17-1.38.2-2.27,0-.54-.23-1.08-.18-.29-.65-.29-.61-.24-.65-.28-.62-.25-.42-.28-.62-.29-.64-.29-.62-.24-.64-.28-.62-.24-.64-.29-.62-.29-.64-.24-.4-.28-.64-.29-.62-.24-.65-.29-.61-.28-.65-.24-.62-.29-.42-.29-.84-.23-.64-.3-.4-.28-.64-.24-.84-.29-.42-.29-.4v-.86l.31-.83.31-.64.26-1,.3-.62.31-.85.25-.59.31-.84.31-.63.25-.62.31-.85.31-.81.26-.84.3-.64.31-.83.25-.59.31-.86.31-.61.26-.86.3-.61.26-.81.31-.86.3-.81.31-.66.25-.59.31-.83.26-.64-.79-.23-.59-.23-1.08-.18-1.13-.23-1.14-.21-1.37-.24-1.68-.24-1.38-.19-3.06-.25-5-.28-12.53-.13-5.87.16-3.36.19-1.93,0,1.14.19,1.67.24,1.92.24,1.68.22,1.38.23,0,.84-.4,7.95L612,208.49l-.3.39-.25.44-.31.64-.3.39-.3.22-.25.64-.3.17-.26.63-.3.44-.3.39-.25.42-.31.44-.3.61-.25.42-.31.39-.25.41-.3.44-.3.4-.3.41-.26.44-.3.61-.25.2-.31.66-.3.39-.25.42-.3.39-.31.63-.25.39-.3.22-.25.64-.3.39-.31.44-.3.42-.25.39-.31.64-.25.21-.3.39-.3.22-.84.19-.25.22-2.81,0-1.38-.24-1.67-.21-1.38-.24-1.38-.23-1.13-.19-.84-.23-1.38-.23-1.13-.21-.84-.23L585,223l-.54-.18-1.08-.2-.84-.24-.54-.22-.88-.23-.79-.18-.83-.24-.84-.2-.59-.23-.54-.23-.54-.22-.84-.18-.54-.23-.29-.2-.54-.23-.59-.23-.83-.18-.54-.23-.54-.22-.3-.2-.54-.23-.29-.18-.84-.23-.24-.22-.29-.23-.59-.2-.25-.22-.29-.18-.54-.23-.54-.22-.29-.23-.3-.2-.24-.22-.29-.18-.25-.22-.59-.23-.29-.23-.24-.19-.3-.23-.24-.17-.29-.23-.3-.22-.54-.21-.29-.22-.24-.23-.54-.17-.29-.45-.3-.2-.29-.23-.24-.39-.29-.23-.25-.22-.29-.2-.29-.23-.24-.39-.3-.23-.29-.42-.24-.44-.29-.18-.29-.42-.24-.45-.29-.39-.3-.23-.24-.42-.29-.4-.29-.44-.24-.65-.29-.39-.24-.42-.29-.23-.29-.62-.24-.22-.29-.82-.29-.22-.24-.65-.29-.22-.29-.4-.24-.64-.29-.4-.29-.22-.24-.64-.29-.4-.29-.42-.24-.67-.29-.18-.29-.42-.24-.44-.29-.62-.24-.2-.29-.62-.29-.45-.29-.42-.24-.4-.29-.44-.24-.42-.29-.62-.3-.23-.23-.59-.29-.45-.29-.42-.25-.39-.29-.45-.24-.42-.29-.4-.28-.64-.29-.45-.25-.17-.29-.65-.24-.44-.29-.4-.29-.42-.24-.45-.29-.59-.28-.62-.24-.45-.29-.81-.24-.45-.28-.81-.29-.87-.28-1-.23-1.26-.27-1.66.13-9.65.32-1.84.27-1.25.31-1.26.31-.83.31-.81.25-.86.31-.83.26-.42.3-.61.3-.64.26-.61.3-.41.3-.44.26-.59.3-.44.25-.39.3-.22.3-.42.3-.22.26-.39.3-.41.25-.44.3-.39.3-.22.26-.64h.59v-.4l.26-.41h.54v-.44l.29-.17.3-.22.3-.22.25-.41H552v-.39l.31-.44h.54v-.41l.6-.17.25-.22.59-.21.26-.42.3-.22.29-.17.55-.21.3-.44.55-.19.3-.22.54-.17.55-.22.3-.41.25-.22.59-.22.25-.16.6-.22.25-.22.3-.19.54-.22.6-.21.25-.17.3-.22.54-.22.6-.19.54-.21.55-.22.3-.17.54-.21.3-.22L566,142l.54-.22.6-.22.54-.16.55-.22.55-.21.59-.19.55-.22.54-.17.6-.21.54-.22.84-.21.3-.19.55-.22.54-.17.55-.21.84-.21.84-.22.85-.19.54-.21.84-.16.6-.22.84-.21.84-.22.84-.18.55-.22.84-.16.84-.22,1.14-.2,1.09-.19.84-.21,1.09-.21,1.14-.16,1.14-.21,1.08-.19,1.44-.2,1.38-.21,1.39-.21,1.38-.16,2-.2,1.68-.17,1.68-.21,2.52-.14,2.47-.2,3.65-.16,3.9-.18,23.15.25,3.89.26,3.6.24,2.81.25,2.22.2,1.67.24,1.93.21,1.67.24,1.38.19,1.67.24,1.38.24,1.38.23,1.13.21,1.09.23,1.13.19,1.13.23L667,137l1.14.2.83.23.54.23,1.13.19.79.23.59.2.84.23.83.23.84.23.54.18.83.23.84.21.83.23.54.22.59.23.54.18.84.23.54.2.29.23.84.23.24.22.59.18.54.23.54.2.29.23.54.22.54.18.59.23.54.23.3.2.54.22.24.23.59.18.29.22.54.23.54.2.59.23.25.22.29.18.24.22.3.23.54.2.59.23.24.22.29.18.25.22.29.23.29.2.3.22.24.23.54.18.29.22.3.2.24.22.29.23.54.23.3.17.29.23.24.42.59.23.24.22.29.4.3.2.24.22.54.23.29.4.29.22.29.42.25.23.29.17.24.23.29.42.29.44.3.18.24.22.3.23.24.2.29.4.24.44.29.42.29.4.29.45.24.42.3.22.24.4.29.22.29.65.29.39.24.42.29.62.23.65.29.44.29.4.24.86.29.6.28.67.24.81.28.84.24,1Zm-36.8,2.76.23,1-.06,4.58-.26,1.06-.31.63-.3.62-.31.41-.25.39-.3.44-.25.42-.3.22-.3.17-.25.44-.3.19-.3.22-.25.22-.3.17-.25.22-.3.19-.3.22-.3.22-.25.22-.54.16-.3.22-.3.2-.54.21-.3.22-.55.22-.25.17-.59.21-.55.19-.55.22-.29.22-.6.21-.54.17-.55.21-.55.19-.54.22-.84.21-.3.17-.84.21-.85.22-.54.19-.84.21-.84.16-.85.22-1.13.21L651,188h-.84l.29.59.24.45.28.64.29.62.24.64.29.62.23.64.29.62.29.65.29.59.23.67.29.59.24.67.29.59.29.45.28.62.24.64.29.62.24.59.29.67.23.59.29.67.29.6.29.66.23.6.29.64.24.62.29.64.29.45.28.62v.64l1.63-.21,1.38-.2,1.14-.19,1.14-.21.79-.21.84-.16,1.14-.21.84-.22.84-.19.84-.21.85-.21.79-.16.89-.22.79-.21.84-.19.85-.21.84-.21.84-.17.59-.21.85-.19.54-.22.55-.21.54-.22.6-.16.84-.22.25-.19.84-.21.6-.22.54-.21.55-.17.3-.22.54-.19.55-.22.59-.21.55-.22.54-.16.3-.22.55-.19.3-.22.54-.22.3-.17.55-.21.59-.22.55-.19.25-.22.3-.17.54-.21.6-.22.25-.22.3-.19.25-.22.59-.17.3-.21.25-.22.3-.22.25-.2.3-.21.3-.17.25-.22.59-.22.25-.41.3-.22.3-.17.25-.22.3-.22.3-.41.25-.22.3-.17.3-.44.25-.2.3-.21.25-.4.31-.41.29-.22.31-.44.25-.17.3-.41.25-.44.3-.4.3-.21.3-.42.26-.44.3-.39.25-.42.31-.61.25-.41.3-.4.3-.66.31-.58.25-.67.31-.58.26-.86.31-.84.31-1.25.32-1.67.13-9.82-.27-1.88-.27-1.26-.29-1-.23-.82-.29-.86-.23-.62-.29-.65-.29-.61-.29-.65-.24-.39-.29-.45-.24-.64-.29-.4-.24-.42-.29-.45-.29-.4-.29-.2-.24-.44-.29-.4-.25-.22-.29-.42-.29-.23-.29-.4-.24-.22-.3-.2-.24-.45-.29-.17-.29-.23-.24-.42-.3-.22-.29-.23-.24-.17-.29-.45-.3-.2-.24-.22-.59-.18-.24-.45-.3-.22-.29-.2-.54-.23-.24-.17-.3-.23-.29-.22-.29-.23-.25-.2-.29-.22-.54-.18-.29-.23-.29-.22-.54-.23-.25-.2-.54-.22-.29-.18-.59-.23-.24-.22-.54-.21-.3-.22-.59-.23-.24-.17-.54-.23-.59-.23-.54-.2-.29-.23-.54-.22-.54-.18-.59-.23-.54-.23-.54-.2-.54-.23-.59-.22-.54-.18-.54-.23-.84-.23-.54-.2-.59-.23-.54-.23-.83-.18-.54-.23-.84-.23-.59-.2-.83-.23-.54-.18-.84-.23-.83-.23-.84-.23-.54-.2-1.13-.24-.79-.18-.88-.23-.79-.23-.84-.23-1.13-.21-.83-.23-1.09-.18-1.13-.24-1.08-.23-1.38-.24-1.13-.21-1.43-.23-1.33-.19-1.43-.24-1.67-.24-1.68-.21-1.92-.24-2.51-.25-2.52-.2-3.6-.26-7.25-.27-13.37-.15-7.85.12-3.6.18-2.77.14-2.22.2-2,.2-2,.18-1.38.2-1.39.21-1.38.16-1.43.2-1.09.19-1.14.21-.84.21-1.09.21-1.14.16-.84.21-.84.19-1.09.21-.84.22-.84.21-.85.16-.84.21-.84.19-.84.21-.55.22-.84.21-.84.17-.6.21-.79.19-.59.22-.85.21-.24.17-.85.21-.59.22-.79.18-.6.22-.54.22-.55.16-.6.22-.54.21-.55.19-.59.22-.55.21-.54.17-.3.22-.84.21-.3.2-.55.21-.25.22-.59.17-.55.21-.54.22-.3.19-.25.22-.6.22-.3.17-.25.21-.54.2-.3.21-.3.22-.55.22-.29.17-.25.22-.6.19-.25.22-.3.21-.3.22-.25.17-.3.22-.29.2-.25.21-.3.22-.26.39-.59.22-.25.19-.3.22-.3.22-.25.17-.3.22-.3.22-.25.19-.29.22-.31.39-.25.22-.3.22-.29.19-.26.39-.3.22-.29.22-.26.42-.3.21-.25.17-.3.44-.3.42-.3.22-.25.39-.3.44-.25.19-.3.39-.31.44-.25.42-.3.61-.31.42-.25.61-.3.42-.26.66-.3.59-.31.83-.31.86-.26,1-.31,1.25-.27,1.43L545.19,179l.23,1.43.28,1.09.24.81.28.62.29.86.28.62.25.42.29.4.23.64.29.4.29.45.25.22.29.42.29.4.24.23.29.42.25.22.29.18.29.44.29.23.24.42.3.17.24.23.29.22.29.42.25.23.29.17.3.23.24.22.29.2.3.23.24.22.29.4.29.2.54.23.3.22.24.23.29.17.29.42.54.23.25.23.29.22.29.18.25.22.59.2.24.23.29.22.3.23.24.17.59.23.24.2.3.22.29.23.54.18.24.22.59.23.54.2.3.23.54.17.54.23.58.23.25.22.83.21.59.23.54.18.54.22.54.23.59.23.54.2.84.23.54.18.54.23.59.22.83.24.54.2.84.23.54.18.59.22.83.24.79.2.59.23.84.23.83.18.54.23.84.23.83.2.84.23.84.24.83.18,1.08.23.84.23,1.13.21,1.13.23,1.09.24,1.38.18,1.42.24,2.22.25,2.76.25v-.45l.3-.39.25-.22.3-.63.31-.39.25-.22.3-.64.3-.22.26-.61.3-.42.3-.39.25-.63.31-.44.3-.4.25-.41.31-.61.3-.42.25-.44.3-.39.3-.42.26-.44.3-.61.25-.41.3-.4.31-.44.3-.41.25-.39.31-.64.25-.39.3-.44.3-.42.25-.39.31-.44.3-.41.25-.62.31-.41.25-.44.3-.39.3-.64.31-.39.25-.42v-.22l-1.38-.23-1.38-.24-1.67-.19-1.38-.24-1.13-.21-1.13-.23-1.09-.23-.83-.23-1.13-.19-.84-.23-.84-.2-.54-.23-.83-.23-.84-.18-.83-.23-.54-.23-.59-.2-.54-.23-.54-.18-.84-.23-.54-.23-.54-.22-.59-.21-.54-.23-.54-.17-.59-.23-.29-.23-.54-.22-.24-.2-.54-.23-.3-.18-.29-.22-.29-.23-.54-.22-.25-.2v-.4h-.59l-.29-.45-.25-.2-.29-.22-.24-.4-.29-.22-.29-.43-.25-.22-.29-.4-.29-.44-.24-.65-.28-.62-.29-.81-.22-1.7.05-3.55.27-1.67.3-.81.31-.66.25-.59.31-.44.3-.39.25-.22.3-.41.3-.44.25-.17.3-.22.25-.2.3-.44.3-.17.55-.21.3-.22.24-.19.3-.22.3-.17.55-.22.3-.22.25-.21.54-.2.3-.21.6-.17.54-.22.55-.21.59-.22.55-.19.54-.21.85-.17.84-.21.84-.21.84-.22,1.09-.18.84-.21,1.14-.16,1.09-.21,1.43-.21,1.09-.19L601,158l1.39-.21,2-.15,1.63-.2,2-.18,2.23-.2,3.65-.18,23.69.25,3,.26,2.22.24,1.92.22,1.43.24,1.38.18,1.38.24,1.38.24.83.2,1.14.24,1.13.23.78.18.89.23,1.08.21.84.23.83.23.54.23.84.18.84.23.54.2.54.23.54.23.58.23.84.18.24.22.59.2.54.23.3.23.54.22.29.18.24.22.59.21v.44h.54l.24.17.3.23.59.22.24.42.29.18.24.22.29.45.3.2.24.4.29.22.29.45.25.2.29.39.24.45.28.64.29.62Z"/><path d="M707.55,265.51l.22,1.7-.12,8.81-.28,1.89-.31,1.26-.26.83-.31,1.25-.31.64-.3.81-.26.83-.31.64-.25.44-.3.61-.31.64-.3.61-.25.22-.31.42-.3.61-.3.41-.25.45-.31.39-.25.22-.3.21-.3.59-.3.44-.25.22-.3.42-.31.39-.24.22-.31.41-.3.44H699v.4l-.3.22-.25.41-.3.22-.3.39-.25.22-.3.22-.3.22-.25.41-.3.17-.3.22-.3.44-.25.2-.3.44-.25.17-.3.21-.3.22-.3.42-.25.22-.3.39-.3.22-.25.41h-.6v.39l-.25.22-.3.22-.3.41-.3.22-.25.39h-.55v.44l-.3.19-.3.44-.31.39h-.54v.42l-.31.44-.25.22h-.59v.39l-.25.22-.31.42-.29.22-.31.39-.25.22-.3.41h-.54v.44l-.29.17-.31.44-.25.41-.3.22-.3.39-.55.22-.29.19-.26.44-.3.17-.3.44-.25.22-.3.42h-.54v.39l-.3.22-.3.42-.25.22-.3.22-.3.61-.55.19v.44l-.55.22-.3.39-.3.22-.3.22-.25.41-.3.17-.3.22-.3.22-.25.22-.3.19-.25.22-.3.17-.3.44-.54.21-.3.2-.25.22-.3.39-.3.22-.55.21-.3.42-.6.21L672,318l-.29.22-.25.22-.6.21-.3.2-.54.21-.3.17-.55.22-.3.22-.25.22-.59.19-.55.21-.3.17-.25.22-.59.22-.25.19h-.89v.44l-.79.17-.3.22-.3.22-.84.21-.54.19-.85.21L661,323l-.3.22-.54.21-.85.21-.84.19-.54.22-.55.21-.6.22-.84.16-.84.22-.84.18-.55.22-1.13.21-.85.21-.84.16-1.14.21-1.13.21-.8.19-1.13.21-1.44.21-1.38.16-1.14.21-1.68.2-1.68.2-2,.18-2.52.19-2.81.15-3.66.18-19.88-.21-3.65-.26-3.11-.21-2.51-.25-2-.22-2-.24-1.68-.24-1.38-.23-1.43-.19-1.67-.24-1.13-.24-.79-.2-1.13-.23-.89-.24-1.08-.18-.83-.23-1.14-.23-.54-.23-.88-.21-.79-.23-.88-.18-.54-.23-.54-.22-.59-.23-.84-.21-.83-.23-.54-.23-.54-.22-.3-.18-.83-.23-.54-.2-.59-.23-.54-.23-.59-.23-.54-.17v-.45h-.83l-.3-.2-.54-.22-.29-.23-.54-.18-.29-.22-.54-.2-.3-.23-.59-.23-.24-.22L566,318l-.54-.22-.3-.2-.29-.23-.54-.23-.24-.22-.3-.18-.29-.22-.29-.22-.54-.21-.3-.22-.24-.23-.29-.39-.29-.23-.54-.2-.3-.23-.24-.22-.29-.22-.3-.18-.29-.22-.24-.43-.54-.22-.29-.4-.29-.23-.3-.2-.24-.44-.29-.23-.54-.17V311l-.3-.22-.29-.2-.24-.4-.29-.22-.29-.45-.3-.42-.24-.45-.29-.17-.24-.42-.29-.45-.29-.62-.29-.42-.24-.45-.29-.61-.28-.65-.24-.39-.29-.65-.29-.62-.24-.64-.28-.62-.29-.67-.29-.59-.24-.67-.29-.42-.24-.62-.28-.64-.29-.62-.29-.42-.24-.67-.29-.62-.29-.42-.23-.84-.29-.42-.29-.62-.24-.64-.29-.45-.28-.62-.24-.64-.29-.62-.29-.64-.23-.62-.29-.64-.29-.62-.24-.64-.29-.45-.28-.62-.29-.64-.24-.4-.29-.64-.24-.62-.29-.64-.29-.45-.28-.62-.24-.81-.29-.67-.28-.82-.24-.86-.28-1-.28-1.28-.22-1.46.14-9.89.26-1.65.32-1.25.31-1.08.26-1,.31-.61.3-.86.26-.83.31-.86.3-.61.31-.42.25-.61.3-.41.26-.45.3-.39.3-.63.3-.44.26-.39.3-.44.3-.42.25-.17.3-.44.3-.41.26-.45.3-.16.3-.44.25-.2.3-.66H549v-.6h.6v-.44l.25-.22.3-.17.3-.22.3-.41.25-.44.55-.17.3-.44.6-.19.25-.22.3-.44.3-.17.54-.22.3-.19.25-.22.3-.44.6-.16.54-.22.25-.22.3-.19.3-.22.3-.22.25-.17.3-.22.59-.21.25-.22.3-.2.25-.22h.59v-.39l.3-.22.79-.21.3-.2.6-.21.25-.22.59-.22.25-.17.6-.21.24-.2.6-.21.55-.22.29-.22.55-.16.55-.22.59-.21.55-.2.3-.21.54-.22.6-.17.54-.21.3-.22.55-.19,1.13-.21.3-.22.55-.17.54-.21.85-.21.59-.19.55-.22.54-.22.89-.21.85-.16.54-.22.84-.19.85-.21.54-.21.84-.22.89-.16.8-.21.89-.21,1.14-.21.79-.19,1.14-.21.84-.17,1.14-.2,1.38-.21.89-.21,1.39-.19,1.38-.2,1.43-.21,1.39-.21,2-.15,1.68-.2,2-.18,2.23-.19,2.57-.2,3.06-.14,4.19-.15,22.21.24,4.19.24,3.06.2,2.51.25,2.56.25,1.68.22,1.67.23,2,.2,1.37.23,1.68.24,1.13.24,1.13.21,1.09.23,1.42.24,1.38.23.84.18.83.23,1.14.21,1.08.24.59.22.83.24,1.14.18.83.23.54.23.84.23.83.2.59.23.79.18.88.23.54.23.59.23.54.2.84.23.54.23.54.18.29.22,1.13.24.59.2v.44h.54l.84.18.54.23.29.22.54.2.59.23.24.23.59.18.54.22.54.23.29.22.54.21.3.22.29.18.54.23.54.22.29.23.59.2.25.22.59.23.24.23.59.18.24.42.29.22.3.23.29.22.24.18.54.22.3.23.29.2.29.22.25.23.29.17.29.23.25.22.59.23.24.2.29.22.3.18.29.22.24.23.54.23.29.64.59.18.24.44.29.2.3.23.24.22.29.18.29.44.25.23.29.2.29.4v.44h.54l.29.23.24.64.29.18.3.22.24.42.29.45.29.4.29.22.24.42.29.45.24.4.29.44.29.6.29.44.24.23.29.64.29.62.29.42.24.62.28.64.24.62.29.86.28.62.28,1.09.24,1ZM609,309l4.49.22,21.61.23,4-.13,3.36-.19,2.22-.17,2.27-.2,1.93-.2,2-.2,1.43-.16,1.39-.2,1.68-.21,1.13-.18,1.44-.21,1.09-.21,1.13-.16,1.09-.21,1.14-.21.84-.19.85-.21,1.13-.21.84-.16.85-.21.84-.22.84-.18.55-.22.84-.21.84-.22.89-.16.55-.21.84-.19.54-.22.6-.21.54-.22.85-.16.59-.22.55-.21.54-.22.6-.19.54-.22.6-.16.54-.22.25-.22.9-.21.24-.19.6-.22.55-.21.29-.17.55-.22.3-.22.54-.19.3-.22.55-.21.3-.22.54-.17.3-.22.3-.19.25-.22.55-.21.3-.22.3-.17.29-.22.55-.22.3-.19.25-.22.3-.22.3-.17.25-.22.3-.21.29-.2.3-.22.25-.22.3-.21.25-.17.3-.22.3-.2.3-.21.25-.22.3-.22.3-.17.25-.22.29-.22.3-.22.26-.41.29-.17.3-.22.31-.44h.54v-.42l.25-.22.3-.17.31-.44.29-.19.25-.22.31-.44.29-.17.26-.42.3-.22.3-.44.25-.17.3-.44.3-.41.25-.39.31-.44.3-.42.25-.44.3-.39.3-.42.26-.61.3-.44.31-.64.3-.61.26-.64.3-.83.26-.86.31-1,.32-1.25L704,276l.13-8.81-.27-2.12-.28-1.29-.28-1.25-.23-.65-.29-.81-.24-.67-.28-.59-.29-.67-.29-.62-.24-.42-.29-.4-.29-.45-.24-.42-.29-.44-.29-.4-.24-.42-.3-.23-.29-.39-.24-.23-.29-.44-.29-.43-.24-.17-.29-.45-.3-.22-.24-.2-.29-.23-.3-.22-.29-.4-.24-.22-.3-.2-.24-.23-.29-.44-.29-.18-.3-.22-.24-.2-.29-.23-.3-.22-.24-.4-.29-.22-.29-.23-.25-.2-.29-.22-.59-.23-.24-.4-.29-.22-.25-.2-.29-.23-.59-.22-.24-.23-.3-.17-.29-.23-.24-.2L689,246l-.29-.23-.54-.22-.29-.18-.3-.22-.24-.23-.29-.2-.54-.23-.3-.22-.54-.18-.29-.22-.54-.23-.29-.23-.3-.2-.53-.22-.3-.18-.54-.23-.29-.22-.54-.23-.29-.2-.54-.23-.59-.22-.54-.23-.54-.18-.3-.22-.54-.21-.88-.23-.54-.23-.54-.22-.59-.18-.54-.23-.54-.23-.84-.2-.59-.23-.54-.23-.54-.18-.88-.23-.84-.23-.54-.2-.83-.23-.84-.23-.83-.18-.84-.23-.84-.23-.83-.21-1.13-.23-.84-.23-1.13-.24-.84-.18-1.13-.23-1.08-.21-1.13-.23-1.38-.24-1.14-.23-1.13-.19-1.67-.24-1.38-.23-1.68-.24-2-.22-2.26-.25-2.22-.19-3.06-.26-5.08-.27-21.31-.23-5,.17-2.82.19-2.52.14-2.27.2-1.68.18-1.68.2-1.43.21-1.39.21-1.38.15-1.14.21-1.14.21-1.09.21-1.13.19-1.14.21-.84.16-.85.21-1.13.21-.85.22-.84.18-.84.22-.84.21-.84.16-.84.22-.6.21-.84.19-.84.21-.55.22-.54.16-.85.22-.59.21-.84.19-.55.22-.59.21-.55.17-.84.21-.55.22-.59.21-.55.19-.54.22-.6.16-.54.22-.6.21-.55.22-.29.19-.85.22-.3.22-.54.21-.55.17-.3.22-.54.19-.6.21-.25.22-.59.22-.25.17-.6.21-.25.22-.59.19-.3.22-.25.22-.54.17-.3.21-.3.22-.55.22-.3.19-.25.22-.3.17-.29.22-.55.21-.3.22-.3.2-.3.21-.25.22-.3.39-.54.22-.3.19-.3.22-.25.39-.3.22-.3.22-.25.22-.3.19-.3.39-.25.22-.3.22-.3.22-.3.42-.25.21-.3.4-.25.21-.31.42-.3.22-.3.39-.25.22-.3.41-.3.44-.25.39-.31.44-.3.42-.25.39-.3.44-.31.64-.25.61-.3.42-.31.61-.25.64-.31.83-.31.86-.26.81-.31,1.05-.31,1.48-.33,2.28-.13,9.29.26,2.29.28,1.26.28,1.06.24.86.28.82.29.62.24.64.29.62.29.45.23.64.29.4.29.44.24.42.3.4.29.45.24.42.29.39.29.23.24.45.29.2.29.39.3.23.24.22.29.42.25.23.29.22.29.4.29.22.25.2.29.23.29.22.25.23.29.17.29.23.24.42.59.23.29.39.54.23.24.45.3.2.29.22.29.18.54.22.3.23.29.22.24.2.3.23.24.22.29.18.3.22.54.23.29.2.24.22.3.23.59.18.24.22.29.23.3.22.54.2.29.23.54.18.29.22.25.23.58.22.3.2.54.23.24.23.59.17.54.23.29.23.54.2.59.23.54.22.3.23.54.18.54.22.58.21.54.23.59.22.54.23.54.18.89.23.54.23.54.22.59.21.83.23.84.18.54.23.84.23.83.23.54.2.89.23.78.23,1.14.19.88.23.79.23,1.13.21,1.13.23,1.13.23,1.09.19,1.13.23,1.43.24,1.38.21,1.13.23,1.67.24,1.68.19,2,.25,2,.24,2.22.24,2.81.23Zm61.19-42,.23,1.08-.09,6.09-.26.81-.3.85-.31.44-.25.39-.3.42-.3.44-.25.39-.31.42-.3.22-.24.21-.31.4-.3.21-.25.22-.29.2-.3.21-.3.17-.25.22-.3.22-.25.22-.3.19-.3.22-.54.22-.3.22-.3.17L663,282l-.6.2-.25.21-.3.22-.59.22-.25.17-.3.22-.54.21-.3.2-.55.21-.55.22-.54.16-.6.22-.54.21-.3.22-.84.19-.84.21-.6.17-.84.21-.84.22-1.09.21-.84.18-1.14.21-1.14.21-1.38.16-1.44.21-1.68.2-2,.18-2,.2-2.77.19-3.11.14-5.63.16-9.22-.1-5.33-.28-3.35-.21-2.81-.25-2.27-.24-2.22-.22-1.67-.24-1.43-.24-1.38-.19-1.43-.23-1.08-.24-1.13-.21-.84-.23-1.13-.23-.84-.23-.54-.18-.83-.23-.59-.2L590,284l-.54-.23-.59-.23-.29-.17-.54-.23-.54-.23-.3-.2-.54-.22-.29-.23-.59-.18-.24-.22-.54-.23-.3-.22-.58-.21-.25-.22-.29-.18-.25-.22-.59-.23-.29-.22-.24-.2-.29-.23-.59-.23-.25-.39-.29-.23-.24-.2-.3-.22L580,278l-.29-.17-.24-.45-.29-.2-.29-.44-.24-.4-.29-.42-.29-.45-.24-.62-.29-.86.1-7.12.31-.86.26-.61.3-.64.3-.39.25-.22.3-.41.31-.44.24-.17.3-.22.31-.44.29-.19.25-.22.3-.17.25-.22.3-.22.3-.22.3-.19.25-.22.3-.22.3-.17.54-.21.3-.22.25-.2.6-.21.3-.22.25-.22.29-.17.55-.21.3-.2.55-.21.29-.22.6-.22.25-.17.54-.21.6-.22.55-.19.59-.21.55-.22.84-.16.54-.22.85-.21.84-.19.89-.21.79-.21,1.14-.21.84-.17,1.43-.2,1.09-.19,1.44-.21,1.38-.2,1.68-.21,2-.15,2.57-.19,3.9-.18,20.18.21,3.11.26,2.51.25,2,.19,1.68.24,1.67.24,1.43.24,1.08.2,1.43.24,1.08.19,1.13.23.84.23,1.13.23,1.13.21.84.23.84.23.83.18.84.24.83.23.59.2.79.23.54.23.59.18.54.22.54.23.59.23.29.2.54.23.54.17.29.23.3.22.54.23.29.2.29.23.25.22.29.17.24.23.3.22.29.2.29.23.25.22.29.23.29.39.24.2.29.45.3.23.24.39.29.45.29.42.24.4.29.64Zm-60.86,17.87,3.36.2,23.88.26,1.92,0-1.08-.18-1.13-.24-1.38-.21-2-.24-2.27-.25-3.05-.25-18.8-.2L606,284l-2.22.2-1.19.06,1.73.16,2.51.23Z"/><path d="M540.15,332.57l166.15,1.77-.53,38-.32,1.55-.26,1.35-.26.81-.31.78-.26.76-.25.59-.31.59-.25.41-.25.37-.3.59-.26.59-.25.39-.3.36-.26.42-.24.17-.31.41-.25.37-.25.39-.25.42-.3.36-.5.22-.3.37-.25.39-.25.19-.26.39-.54.2L698,386l-.3.42-.25.17-.25.42-.55.16-.25.22-.3.37-.25.22-.25.19-.3.17-.25.19-.25.22-.3.37-.5.22-.3.36-.25.17-.25.22-.25.37-.54.21-.25.37-.3.22-.25.19-.26.39-.54.19-.25.4-.25.19-.3.17-.25.22-.25.37-.55.21-.25.37-.3.19-.25.22-.25.37h-.54v.4l-.25.19-.3.17-.25.22-.25.36-.54.22-.25.19-.26.4-.29.19-.26.39-.54.19-.25.17-.26.59h-.79v.42l-.25.17-.3.22-.25.56h-.79v.4l-.25.19-.3.39-.25.37h-.79v.42l-.25.17-.3.41-.25.17-.54.22-.26.37-.25.41-.54.17-.26.41h-.54v.39l-.25.15-.25.22-.55.19-.25.17-.3.22-.25.19-.25.17-.54.22-.25.19-.25.17-.3.22-.25.19-.54.17-.5.22h-.54v.37l-.25.22-.79.19-.55.16-.24.22-.55.19-.25.17-.55.22-.24.19-.8.17-.49.21-.55.19-.54.17-.25.2-.8.16-.54.22-.5.19-.79.16-.55.22-.79.19-.49.16-.8.22-.79.18-.54.17-1,.21-.79.19-.8.16-.74.22-1.09.18-.74.17-1.09.21-1,.18-1.33.16-1,.21-1.29.18-1.33.16-1.29.19-1.58.2-2.13.15-2.07.18-2.13.19-2.37.15-2.86.17-3.65.13L605.58,415l-4.43-.22-3.16-.23-2.37-.2-2.06-.24-1.88-.22-1.82-.19-1.58-.24-1.28-.21-1-.18-1.08-.21-1-.23-1-.19-1-.2L581,412l-1-.19-.79-.2-.79-.23-.78-.18-.79-.21-.79-.23-.54-.18-.79-.2-.49-.23-.54-.18-.78-.2-.49-.23-.79-.18-.54-.2-.54-.23-.49-.18-.54-.2-.54-.18-.49-.2-.54-.23-.25-.17-.54-.21-.54-.22-.73-.18-.3-.2v-.4h-.74l-.3-.2-.24-.22-.54-.18-.49-.2-.29-.23-.49-.17-.3-.2-.24-.23-.54-.18-.25-.2v-.39h-.54l-.25-.2-.24-.22-.29-.17-.5-.21-.29-.22-.24-.15-.49-.23v-.59h-.55l-.24-.17-.24-.42-.29-.37-.49-.23-.3-.18-.24-.42-.24-.37v-.39h-.54l-.24-.2-.29-.59-.24-.4-.24-.42-.29-.55-.24-.2-.24-.59-.29-.4-.24-.42-.25-.37-.28-.59-.25-.4-.24-.42-.29-.37-.24-.6-.24-.17-.24-.42-.29-.6-.24-.37-.24-.4-.24-.59-.29-.42-.24-.18-.24-.59-.29-.59-.24-.42-.24-.38-.29-.39-.25-.2-.24-.6-.28-.59-.25-.37-.24-.4-.29-.59-.24-.2L546,384l-.29-.39-.24-.6-.24-.37-.29-.42-.24-.18-.24-.59-.29-.42-.24-.4-.24-.57-.29-.39-.24-.42-.25-.38-.23-.59-.24-.59-.29-.4-.24-.59-.24-.6-.29-.59-.24-.59-.24-.57-.28-.6-.24-1-.23-.8-.28-1-.23-1.19Zm61.47,66.13,4.19.24,30.15.32,3.9-.16,2.91-.19,2.37-.12,2.08-.2,2.07-.15,1.59-.18,1.87-.2,1.29-.16,1.33-.18,1.54-.21,1.33-.15,1-.19,1.29-.21,1.08-.16,1-.18,1-.22,1.34-.15.79-.19,1-.21,1-.16.79-.19.79-.22,1-.16.79-.19.8-.21.79-.16.79-.19.79-.16.79-.22.8-.19.49-.16.79-.19.8-.22.79-.16.54-.19.8-.21.49-.17.55-.19.79-.21.55-.17.49-.19.55-.22.49-.17.55-.19.55-.21.49-.17.55-.19.25-.22.54-.17.25-.19.55-.22.49-.16.3-.2.25-.17.55-.21.25-.2.54-.16.25-.22.25-.2.55-.16.25-.2.25-.22.29-.17.25-.19.25-.22.3-.17.25-.19.25-.22.25-.17.3-.2.25-.21.25-.17.3-.2.25-.22.25-.17.29-.19.26-.39.25-.2.3-.39.25-.19.25-.17.3-.42.25-.17.25-.21.3-.59.25-.2.25-.36.3-.39.26-.42.25-.37.25-.39.3-.41.26-.54.25-.59.31-.59.25-.59.26-.81.26-.95.31-1,.27-1.55.75-36.66-159.28-1.69-.25,35.67.23,1,.29.79.23,1,.24.59.29.6.23.56.24.6.29.59.24.6.24.39.29.6.24.37.24.59.29.42.24.4.24.37.29.42.24.38.25.39.29.42.24.18.24.42.29.18.25.42.54.17.24.38.24.22.25.2.29.18.24.22.25.2.24.17.29.23.25.2.24.17.3.23.24.2.24.17.3.23.49.2.29.18.24.22.25.2.54.18.24.2.3.22.24.18.54.2.24.22.25.18.54.2.24.18.25.22.54.2.49.18.29.23.49.2.54.18.25.22.54.2.24.18.54.23.54.2.49.18.54.22.54.21.79.18.49.22.54.21.49.17.79.23.54.21.49.17.78.21.79.23.54.18.79.2.78.18.54.23.74.21.79.18.78.23.79.2.79.18.79.23,1,.21.79.18.78.23,1,.21,1.08.18,1,.24,1,.2,1,.19,1.33.23,1.33.21,1.28.19,1.33.24,1.82.21,1.58.19,2.31.25,2.37.17ZM576.8,355.29l92.23,1-.13,8.83-.31,1.55-.26.81-.26.76-.3.59-.26.59-.25.36-.25.42-.3.37-.26.39-.25.19-.3.39-.25.2-.25.39-.3.19-.25.22-.25.17-.29.2-.26.39-.49.19-.3.22-.25.17-.25.19-.3.17-.5.22-.29.19-.5.17-.3.22-.5.19-.29.17-.5.21-.55.19-.49.17-.79.19-.55.22-.79.16-.75.19-.79.21-1,.16-1.08.19-1,.21-1.34.16-1,.18-1.28.21-1.59.16-1.58.18-1.58.2-1.83.15-2.12.18-2.62.14-3.41.19-5.77.13-9.92-.1L610,379l-4.73-.27-3.16-.21-2.36-.22-1.53-.19-1.58-.24-1.33-.21-1-.18-1-.24-1.09-.2-.78-.18-.74-.23-.79-.21-.78-.18-.54-.23-.79-.2-.49-.18-.54-.23-.79-.2-.54-.18-.49-.2-.29-.23-.49-.18-.3-.2-.49-.22-.29-.18-.49-.2-.25-.23-.29-.17-.49-.2v-.4H581v-.37h-.5l-.29-.22-.24-.37-.24-.23-.3-.2-.24-.39-.24-.38-.29-.42-.24-.39-.24-.38-.29-.59-.24-.79-.23-.77-.29-1-.22-1.58-.21-2.34Z"/><path d="M538.65,419.57l167,1.78-.9,65.25-1.39.18-.54.21-.55.17-.59.22-.25.19-.84.21-.55.22-.3.22-.3.17-.54.21-.55.19-.84.22-.25.17-.6.21-.54.22-.3.19-.55.22-.54.21-.55.17-.3.22-.25.22-.84.18-.54.22-.6.17-.25.21-.54.22-.6.19-.55.22-.29.21-.55.17-.55.22-.29.19-.55.22-.55.21-.54.17-.6.21-.54.22-.25.19-.6.22-.54.17-.3.21-.55.2-.79.21-.3.22-.3.22-.84.16-.54.22-.25.19-.3.22-.85.21-.54.17-.3.22-.55.21-.54.19-.55.22-.59.21-.55.17-.3.22L645.89,498v-.4h-.55l-.24-.45-.59-.2.42-30.36h-.84L643.88,483l-.55.17-1.09.21-.3.41-.25.39-.3.22-.3.22-.55.19-.29.22-.25.17-.3.22-.26.44-.29.19-.25.22-.3.17-.6.22-.25.19-.3.22-.25.22-.3.22-.3.39h-.54v.59l-.54.22-.3.22-.25.19-.3.22-.3.39-.25.22-.55.21-.3.2-.25.22-.59.16-.25.44-.31.42-.54.21-.3.17h-.54v.42l-.3.44-.55.16-.25.22-.3.42-.3.22-.54.16-.3.22-.25.2-.3.21-.25.22-.3.22-.25.17L598,495l-.29-.18v-.44h-.54l-.24-.22.39-28-18.85-.21-.29,20.59-.31.83-.3.81-.26.86-.31.81-.26,1.25-.31.61-.26,1-.31,1-.31,1-.26.86-.31.8-.3.62-.26.63-.54.17-.6.22-30.74-.33-.24-.23-.59-.17-.25-.23-.29-.42-.28-.82-.24-.84-.28-.64-.24-1-.28-.81-.29-.84-.23-.82-.29-.64-.28-1-.23-1.06-.29-.81-.24-.65-.28-.62Zm102.46,24.58,29.06.31-.54,39.25,31.88.34.83-60.22-160.42-1.71-.85,61.25,33.8.36.56-40.28,35.48.38-.5,36.34,30.19.32Z"/><path d="M662.91,502.33l41.84.44-.54,38.85h-.59v.59l-.25.44-.3.41-.26.44-.3.4-.3.41-.3.22-.25.61-.3.22-.3.22-.26.64-.3.39-.3.22-.25.41-.31.61-.29.22-.26.64-.3.22-.3.39-.3.44-.26.41-.3.4-.25.44-.31.63-.3.39-.3.22-.25.42-.3.44-.3.17-.3.44-.25.41-.31.39-.25.44-.3.64-.3.39-.3.22-.26.42-.3.44-.3.61-.31.41-.24.22-.31.39-.25.64-.3.22-.31.61-.29.22-.25.19-.31.44-.3.62-.25.44-.3.19-.3.39-.26.44-.3.64-.84.21-.3.17-33.41-.35-2-.2-2.22-.24-2.26-.25-2.52-.22-2.22-.25-2-.24-2.56-.25-2.22-.2-2.26-.24-2.22-.22-2.27-.25L627,561l-2-.25-2.26-.19-2.52-.25-2-.24-2.22-.25-2.21-.22-2.27-.25-2.27-.19-2.22-.25-2.51-.25-2-.24-2.27-.22-2.26-.25-1.68-.23-.54-.23-.29-.18-.25-.22-.29-.2-.29-.45-.23-.84-.28-1.26-.29-.64-.23-1-.28-1.06-.29-.81-.28-1.09-.24-.84-.28-.87-.23-1.25-.28-.82-.28-1.06-.29-.64-.23-1.07-.29-1-.28-1.09-.28-1-.23-.84-.09-.86-.5,21.47-.26,1.47h-.59v.39l-.3.44-.55.22-32.86-.36-.84-.23-.29-.44-.24-.18-.29-.42-.29-.44-.29-.4-.54-.23-.29-.86-.24-.18-.29-.45-.29-.42-.24-.22-.29-.45-.3-.39-.29-.43-.24-.22-.29-.62-.24-.22-.29-.43-.29-.22-.29-.4-.25-.42-.29-.44-.29-.4-.24-.23-.29-.42-.29-.62-.24-.22-.29-.23-.29-.42-.25-.39-.29-.45-.29-.42-.29-.23-.24-.44-.29-.4-.29-.42-.24-.22-.3-.23-.28-.62-.25-.42-.29-.4-.29-.22-.29-.42-.24-.45-.29-.4-.24-.42-.29-.22-.3-.23-.28-.62-.25-.22-.29-.22-.29-.43-.29-.39-.24-.65-.54-.22-.28-.84-.3-.2-.29-.45-.24-.4-.59-.22.51-36.79,43.57.47.24.62.28,1.26.28.86.29,1,.23.84.29.86.23.84.28,1,.29.86.28.84.24.82.28.86.28,1.07.23,1,.29.65.24.84.28,1.08.28.82.28,1.06.24.81.28.87.29.84.28,1,.23.86.29.84.23,1.09.29.81.28.84.09.87.47-20.22,1.14-.16,1.68-.2,2.23-.2,2.52-.17,2.52-.19,2.56-.2,2-.2,2-.15,2.22-.2,2.52-.19,2.27-.17,2.28-.2,2.22-.2,2-.15,2.52-.19,2.22-.2,2.27-.2,2.82-.17,2-.2,2.23-.2,2.27-.14,2.52-.2,2.27-.17,1.93-.2,2.52-.2,2.57-.19,2-.15,2.23-.2,2-.2,2.51-.12,2.52-.2,2.52-.19Zm.33,36.12,2.22.22,35.43.6.47-34L661.44,505l-2.52.2-2,.2-1.68.17-1.93.21-2,.2-2,.2-2.27.14-2.52.2-2.52.19-2.23.18-2.56.19-2.23.2-2.27.15-2.52.19-2.22.2-2.57.19-2.52.17-2.52.2-2.27.2-2.23.15-2.27.19-1.93.2-1.73.18-1.68.21-2.22.19-3.11.19-2.52.15-2.82.19-2.81.17-1.68.2-.85.21h-.59l-.28,20.38h1.13l2.27.25,2.22.2,2.27.24,2.21.25,2.27.24,2.51.23,2.27.24,2.22.2,2.27.24,2.21.25,2.27.25,2.22.22,2.51.24,2.27.25,2.26.25,2.22.19,2.22.25,2.27.22,2.26.24,2.22.25,2.51.25,2.27.19,2.22.25,2.27.25,2.21.24,2.27.22,2.27.25,2.46.2,2.27.24,2.22.25Zm-86-33.52-36.76-.39L540,536.47l36.76.4Z"/><text class="cls-2" transform="translate(205.04 879.22) scale(0.73 1)">kevin gavis</text><text class="cls-3" transform="translate(16.86 988.9) scale(1.4 1)">programing</text></g></svg>