<svg xmlns="http://www.w3.org/2000/svg" viewBox="0 0 500 500"><defs><style>.cls-1{fill:#22b573;}.cls-2{fill:#fff;}</style></defs><g id="Capa_2" data-name="Capa 2"><path class="cls-1" d="M0,250.34C-.17,112.08,111.2.08,248.94,0,387.66-.08,500.88,112.81,500,250.33,499.11,388.08,386.6,501.9,249.73,500.27,100.69,498.49-1.1,378.61,0,250.34ZM118.07,381.6c22.2-7,42-12.76,61.3-19.61,9.22-3.26,16.7-3.38,26.2.72C299.29,403.13,405.41,330,398.11,230.6c-4.14-56.28-40.78-103.95-93.6-121.76a138.53,138.53,0,0,0-147.19,39.21c-36.69,41.32-44.06,98.76-20.26,150.58,2.84,6.18,3,15,1.16,21.64C132.69,340.05,125.52,359.36,118.07,381.6Z"/><path class="cls-2" d="M118.07,381.6c7.45-22.24,14.62-41.55,20.15-61.33,1.87-6.67,1.68-15.46-1.16-21.64-23.8-51.82-16.43-109.26,20.26-150.58a138.53,138.53,0,0,1,147.19-39.21c52.82,17.81,89.46,65.48,93.6,121.76,7.3,99.44-98.82,172.53-192.54,132.11-9.5-4.1-17-4-26.2-.72C160,368.84,140.27,374.58,118.07,381.6Zm32.68-34.27c10.73-3,17.31-4.09,23.2-6.7,14.05-6.23,26.12-5.08,40.86,1.45,40.4,17.89,80.26,13.34,115.55-13.72S380.49,265.08,374,220.61c-9.61-66-74.17-108.66-141.32-93.21-63.88,14.71-104.51,84-81,145.4C161.44,298.17,168.59,320.12,150.75,347.33Z"/><path class="cls-1" d="M150.75,347.33c17.84-27.21,10.69-49.16,1-74.53-23.52-61.35,17.11-130.69,81-145.4C299.85,112,364.41,154.58,374,220.61c6.47,44.47-8.48,80.78-43.66,107.75S255.21,360,214.81,342.08c-14.74-6.53-26.81-7.68-40.86-1.45C168.06,343.24,161.48,344.3,150.75,347.33Zm73.2-119c24.08-14,11.81-28,6.59-41.24-5.55-14.07-16.9-15.72-27.36-4.62-10.84,11.5-13.55,28.55-5.08,44.71,19.3,36.79,47.46,63.79,89,73.34,8.39,1.93,19.54,1.14,26.6-3.09,7.31-4.38,12.94-13.92,15.6-22.37.9-2.84-9.29-9.58-14.89-13.92-3.19-2.47-7.24-4.76-11.12-5.18s-10.32.26-11.75,2.72c-9.47,16.24-21,12.15-31.88,3.25C248,252.28,237.49,241.14,224,228.28Z"/><path class="cls-2" d="M224,228.28c13.54,12.86,24,24,35.75,33.6,10.88,8.9,22.41,13,31.88-3.25,1.43-2.46,7.85-3.14,11.75-2.72s7.93,2.71,11.12,5.18c5.6,4.34,15.79,11.08,14.89,13.92-2.66,8.45-8.29,18-15.6,22.37-7.06,4.23-18.21,5-26.6,3.09-41.58-9.55-69.74-36.55-89-73.34-8.47-16.16-5.76-33.21,5.08-44.71C213.64,171.32,225,173,230.54,187,235.76,200.28,248,214.26,224,228.28Z"/></g></svg>